<svg width="246" height="156" viewBox="0 0 246 156" fill="none" xmlns="http://www.w3.org/2000/svg">
<g filter="url(#filter0_d_7_58)">
<path fill-rule="evenodd" clip-rule="evenodd" d="M119.222 8.52533C135.138 9.23792 153.684 -0.104864 166.264 5.69607C180.126 12.0886 173.229 25.678 178.071 35.6624C181.134 41.9769 183.302 48.4829 189.634 53.8833C200.361 63.0319 223.22 67.1849 227.706 77.9923C231.844 87.9631 225.948 101.06 211.631 106.885C195.942 113.267 172.738 103.09 155.202 107.487C138.892 111.577 136.119 126.904 119.222 130.058C103.06 133.076 85.0302 128.305 70.3151 123.337C55.9367 118.482 47.0975 109.842 36.7392 102.211C26.3606 94.565 10.4218 87.9833 9.07072 78.2171C7.69596 68.2795 26.7851 61.1289 29.6973 51.3075C32.8215 40.7711 18.8609 29.3975 26.4281 19.6787C33.8171 10.1888 51.2813 3.40764 68.6153 1.32419C85.8344 -0.745452 101.7 7.74084 119.222 8.52533Z" fill="#2EC04B"/>
</g>
<g filter="url(#filter1_d_7_58)">
<path d="M57.6953 62.4297C57.6953 63.7422 57.6484 65.0469 57.5547 66.3438C57.4609 67.6406 57.3672 68.9375 57.2734 70.2344C55.5234 70.3906 53.7812 70.5234 52.0469 70.6328C50.3125 70.7422 48.5703 70.7969 46.8203 70.7969C46.6641 70.7969 46.375 70.7969 45.9531 70.7969C45.5312 70.7812 45.0859 70.7656 44.6172 70.75C44.1484 70.7188 43.7031 70.6875 43.2812 70.6562C42.8594 70.6094 42.5781 70.5469 42.4375 70.4688C41.9219 70.1875 41.5625 69.8359 41.3594 69.4141C41.1562 68.9766 41.0547 68.4844 41.0547 67.9375C41.0547 67.75 41.0625 67.5 41.0781 67.1875C41.0938 66.875 41.125 66.5469 41.1719 66.2031C41.2188 65.8594 41.2812 65.5391 41.3594 65.2422C41.4375 64.9453 41.5312 64.7266 41.6406 64.5859C41.7812 64.3984 42.1016 64.2422 42.6016 64.1172C43.1016 63.9766 43.6953 63.8672 44.3828 63.7891C45.0859 63.7109 45.8359 63.6484 46.6328 63.6016C47.4453 63.5547 48.2188 63.5234 48.9531 63.5078C49.6875 63.4766 50.3438 63.4609 50.9219 63.4609C51.5 63.4609 51.9141 63.4609 52.1641 63.4609C52.2109 63.1172 52.2344 62.7812 52.2344 62.4531C52.2344 62.4219 52.2344 62.3438 52.2344 62.2188C52.2344 62.0781 52.2266 61.9922 52.2109 61.9609C52.1641 61.8672 52.0156 61.7891 51.7656 61.7266C51.5156 61.6641 51.2031 61.6172 50.8281 61.5859C50.4688 61.5547 50.0703 61.5312 49.6328 61.5156C49.2109 61.4844 48.7969 61.4688 48.3906 61.4688C47.9844 61.4688 47.625 61.4688 47.3125 61.4688C47 61.4688 46.7734 61.4688 46.6328 61.4688C45.6484 61.4688 44.6641 61.4922 43.6797 61.5391C42.6953 61.5703 41.7109 61.6016 40.7266 61.6328C40.7891 61.0391 40.8359 60.4375 40.8672 59.8281C40.9141 59.2188 40.9219 58.6172 40.8906 58.0234C42.0312 57.8203 43.1719 57.6797 44.3125 57.6016C45.4688 57.5078 46.6328 57.4609 47.8047 57.4609C48.2266 57.4609 48.6875 57.4688 49.1875 57.4844C49.6875 57.4844 50.1875 57.5 50.6875 57.5312C51.1875 57.5469 51.6797 57.5781 52.1641 57.625C52.6641 57.6719 53.125 57.7344 53.5469 57.8125C53.9844 57.8906 54.4141 58.0312 54.8359 58.2344C55.2734 58.4375 55.6797 58.6875 56.0547 58.9844C56.4297 59.2812 56.7578 59.625 57.0391 60.0156C57.3203 60.3906 57.5234 60.7969 57.6484 61.2344C57.6641 61.2812 57.6719 61.3594 57.6719 61.4688C57.6875 61.5781 57.6953 61.7031 57.6953 61.8438C57.6953 61.9688 57.6953 62.0859 57.6953 62.1953C57.6953 62.3047 57.6953 62.3828 57.6953 62.4297ZM52.4688 67.9375V64.9375C52.0156 64.9219 51.5625 64.9141 51.1094 64.9141C50.6562 64.8984 50.2031 64.8906 49.75 64.8906C49.6562 64.8906 49.3906 64.8984 48.9531 64.9141C48.5312 64.9141 48.0703 64.9297 47.5703 64.9609C47.0859 64.9922 46.6406 65.0312 46.2344 65.0781C45.8281 65.125 45.5938 65.1953 45.5312 65.2891C45.4531 65.4141 45.3984 65.5469 45.3672 65.6875C45.3516 65.8125 45.3438 65.9453 45.3438 66.0859C45.3438 66.1953 45.3516 66.3438 45.3672 66.5312C45.3828 66.7188 45.4062 66.9141 45.4375 67.1172C45.4844 67.3203 45.5312 67.5078 45.5781 67.6797C45.625 67.8516 45.6875 67.9766 45.7656 68.0547C45.8281 68.1328 45.9297 68.1953 46.0703 68.2422C46.2266 68.2734 46.3906 68.3047 46.5625 68.3359C46.7344 68.3516 46.9062 68.3672 47.0781 68.3828C47.25 68.3828 47.3828 68.3828 47.4766 68.3828C47.8516 68.3828 48.25 68.3672 48.6719 68.3359C49.1094 68.3047 49.5469 68.2734 49.9844 68.2422C50.4375 68.1953 50.875 68.1484 51.2969 68.1016C51.7188 68.0391 52.1094 67.9844 52.4688 67.9375ZM78.3672 68.125C78.3672 68.9688 78.1797 69.7344 77.8047 70.4219C77.4297 71.1094 76.8203 71.5859 75.9766 71.8516C75.8516 71.8828 75.5938 71.9141 75.2031 71.9453C74.8125 71.9609 74.3906 71.9766 73.9375 71.9922C73.4844 71.9922 73.0547 71.9922 72.6484 71.9922C72.2422 71.9922 71.9766 71.9922 71.8516 71.9922C70.7422 71.9922 69.6328 71.9844 68.5234 71.9688C67.4297 71.9531 66.3359 71.9297 65.2422 71.8984L65.125 72.9062C64.3281 72.9062 63.5234 72.9219 62.7109 72.9531C61.8984 72.9844 61.0859 73.0234 60.2734 73.0703C60.2891 71.8672 60.2969 70.6719 60.2969 69.4844C60.3125 68.2969 60.3203 67.1016 60.3203 65.8984C60.3203 64.1797 60.2891 62.4766 60.2266 60.7891C60.1797 59.0859 60.1328 57.3828 60.0859 55.6797L64.0703 55.8438C64.0547 56.0469 64.0469 56.2578 64.0469 56.4766C64.0469 56.6797 64.0469 56.8906 64.0469 57.1094C64.0469 58.1406 64.0625 59.1719 64.0938 60.2031C64.1406 61.2188 64.1641 62.2422 64.1641 63.2734C64.4141 62.8203 64.7578 62.3906 65.1953 61.9844C65.6328 61.5781 66.0938 61.3125 66.5781 61.1875C67.0156 61.0781 67.5156 60.9766 68.0781 60.8828C68.6406 60.7891 69.2109 60.7109 69.7891 60.6484C70.3828 60.5703 70.9688 60.5156 71.5469 60.4844C72.125 60.4531 72.6406 60.4375 73.0938 60.4375C73.4219 60.4375 73.7812 60.4844 74.1719 60.5781C74.5781 60.6562 74.9766 60.7734 75.3672 60.9297C75.7578 61.0859 76.1094 61.2812 76.4219 61.5156C76.75 61.7344 77.0078 61.9922 77.1953 62.2891C77.3516 62.5547 77.5 62.9531 77.6406 63.4844C77.7969 64 77.9219 64.5547 78.0156 65.1484C78.125 65.7266 78.2109 66.2891 78.2734 66.8359C78.3359 67.3828 78.3672 67.8125 78.3672 68.125ZM73.4453 66.6484C73.4453 66.4922 73.4219 66.2891 73.375 66.0391C73.3438 65.7891 73.2891 65.5391 73.2109 65.2891C73.1484 65.0234 73.0703 64.7812 72.9766 64.5625C72.8828 64.3281 72.7734 64.1562 72.6484 64.0469C72.5859 63.9844 72.4844 63.9453 72.3438 63.9297C72.2031 63.8984 72.0547 63.875 71.8984 63.8594C71.7578 63.8438 71.6094 63.8359 71.4531 63.8359C71.3125 63.8359 71.2031 63.8359 71.125 63.8359C70.9844 63.8359 70.7656 63.8438 70.4688 63.8594C70.1719 63.875 69.8359 63.8984 69.4609 63.9297C69.0859 63.9453 68.6875 63.9766 68.2656 64.0234C67.8594 64.0547 67.4766 64.0938 67.1172 64.1406C66.7578 64.1875 66.4453 64.2422 66.1797 64.3047C65.9141 64.3516 65.7344 64.4062 65.6406 64.4688L65.9219 68.3828C66.3281 68.3828 66.8438 68.3828 67.4688 68.3828C68.1094 68.3672 68.7656 68.3438 69.4375 68.3125C70.125 68.2656 70.7812 68.2031 71.4062 68.125C72.0469 68.0469 72.5547 67.9297 72.9297 67.7734C73.1953 67.6641 73.3438 67.5156 73.375 67.3281C73.4219 67.1406 73.4453 66.9141 73.4453 66.6484ZM97.5859 63.7188C97.5859 63.8438 97.5859 63.9688 97.5859 64.0938C97.5859 64.2031 97.5781 64.3203 97.5625 64.4453C97.5469 64.6641 97.5078 65.0234 97.4453 65.5234C97.3828 66.0234 97.2969 66.5469 97.1875 67.0938C97.0781 67.625 96.9453 68.1172 96.7891 68.5703C96.6328 69.0234 96.4609 69.3125 96.2734 69.4375C96.1797 69.5 95.8594 69.5547 95.3125 69.6016C94.7812 69.6484 94.125 69.6953 93.3438 69.7422C92.5781 69.7891 91.7422 69.8281 90.8359 69.8594C89.9297 69.8906 89.0625 69.9219 88.2344 69.9531C87.4219 69.9688 86.7031 69.9844 86.0781 70C85.4688 70.0156 85.0625 70.0234 84.8594 70.0234C84.7656 70.0234 84.6016 70.0234 84.3672 70.0234C84.1484 70.0234 83.9141 70.0234 83.6641 70.0234C83.4141 70.0078 83.1797 69.9922 82.9609 69.9766C82.7422 69.9609 82.5859 69.9375 82.4922 69.9062C82.2734 69.8281 82.0547 69.7031 81.8359 69.5312C81.6172 69.3438 81.4141 69.1406 81.2266 68.9219C81.0391 68.6875 80.8672 68.4531 80.7109 68.2188C80.5703 67.9688 80.4688 67.7344 80.4062 67.5156C80.3594 67.3438 80.3203 67.0859 80.2891 66.7422C80.2578 66.3828 80.2344 66.0156 80.2188 65.6406C80.2031 65.25 80.1875 64.875 80.1719 64.5156C80.1719 64.1562 80.1719 63.8828 80.1719 63.6953C80.1719 63.3984 80.1797 62.9922 80.1953 62.4766C80.2109 61.9453 80.2578 61.4062 80.3359 60.8594C80.4141 60.3125 80.5234 59.8047 80.6641 59.3359C80.8203 58.8516 81.0391 58.5156 81.3203 58.3281C81.4453 58.25 81.6797 58.1797 82.0234 58.1172C82.3672 58.0547 82.7734 58 83.2422 57.9531C83.7109 57.9062 84.2109 57.875 84.7422 57.8594C85.2734 57.8281 85.7891 57.8125 86.2891 57.8125C86.8047 57.7969 87.2812 57.7891 87.7188 57.7891C88.1562 57.7891 88.5078 57.7969 88.7734 57.8125C89.0078 57.8281 89.3438 57.8438 89.7812 57.8594C90.2188 57.8594 90.7031 57.8672 91.2344 57.8828C91.7812 57.8984 92.3438 57.9297 92.9219 57.9766C93.5 58.0078 94.0391 58.0547 94.5391 58.1172C95.0391 58.1797 95.4766 58.2656 95.8516 58.375C96.2422 58.4688 96.5 58.5859 96.625 58.7266C96.8281 58.9453 96.9922 59.2734 97.1172 59.7109C97.2422 60.1484 97.3359 60.6172 97.3984 61.1172C97.4766 61.6016 97.5234 62.0859 97.5391 62.5703C97.5703 63.0391 97.5859 63.4219 97.5859 63.7188ZM92.6172 64.2109C92.6172 64.0234 92.6094 63.8047 92.5938 63.5547C92.5781 63.3047 92.5547 63.0547 92.5234 62.8047C92.4922 62.5391 92.4453 62.2891 92.3828 62.0547C92.3203 61.8047 92.2422 61.6016 92.1484 61.4453C92.0234 61.2422 91.7812 61.0859 91.4219 60.9766C91.0625 60.8672 90.6641 60.7891 90.2266 60.7422C89.8047 60.6797 89.3828 60.6406 88.9609 60.625C88.5547 60.6094 88.25 60.6016 88.0469 60.6016C87.9375 60.6016 87.7422 60.6094 87.4609 60.625C87.1797 60.625 86.8828 60.6328 86.5703 60.6484C86.2734 60.6641 85.9922 60.6953 85.7266 60.7422C85.4609 60.7734 85.2891 60.8125 85.2109 60.8594C85.0703 60.9531 84.9609 61.1016 84.8828 61.3047C84.8047 61.4922 84.7422 61.7031 84.6953 61.9375C84.6641 62.1719 84.6406 62.4062 84.625 62.6406C84.625 62.8594 84.625 63.0391 84.625 63.1797C84.625 63.3203 84.6328 63.5781 84.6484 63.9531C84.6797 64.3125 84.7109 64.7031 84.7422 65.125C84.7891 65.5312 84.8438 65.9062 84.9062 66.25C84.9688 66.5938 85.0469 66.8125 85.1406 66.9062C85.25 67.0312 85.4531 67.1328 85.75 67.2109C86.0625 67.2891 86.3906 67.3594 86.7344 67.4219C87.0938 67.4688 87.4375 67.5078 87.7656 67.5391C88.0938 67.5547 88.3281 67.5625 88.4688 67.5625C88.7188 67.5625 89.0156 67.5547 89.3594 67.5391C89.7031 67.5234 90.0469 67.4844 90.3906 67.4219C90.75 67.3594 91.0859 67.2734 91.3984 67.1641C91.7109 67.0547 91.9609 66.9062 92.1484 66.7188C92.2578 66.6094 92.3438 66.4453 92.4062 66.2266C92.4688 66.0078 92.5156 65.7734 92.5469 65.5234C92.5781 65.2734 92.5938 65.0312 92.5938 64.7969C92.6094 64.5469 92.6172 64.3516 92.6172 64.2109ZM115.82 71.8047L111.859 71.9688L111.578 69.6016C111.281 70.0078 110.922 70.3516 110.5 70.6328C110.094 70.9141 109.648 71.1406 109.164 71.3125C108.695 71.4844 108.203 71.6094 107.688 71.6875C107.188 71.75 106.695 71.7812 106.211 71.7812C105.836 71.7812 105.367 71.75 104.805 71.6875C104.258 71.625 103.695 71.5391 103.117 71.4297C102.555 71.3047 102.031 71.1484 101.547 70.9609C101.062 70.7734 100.711 70.5547 100.492 70.3047C100.32 70.1172 100.188 69.8203 100.094 69.4141C100.016 68.9922 99.9609 68.5469 99.9297 68.0781C99.8984 67.6094 99.8828 67.1562 99.8828 66.7188C99.8828 66.2812 99.8828 65.9297 99.8828 65.6641C99.8828 64.4922 99.9297 63.3359 100.023 62.1953C100.117 61.0547 100.25 59.9219 100.422 58.7969C100.859 58.75 101.328 58.7266 101.828 58.7266C102.234 58.7266 102.641 58.7578 103.047 58.8203C103.453 58.8672 103.859 58.9297 104.266 59.0078C104.266 59.0859 104.273 59.3125 104.289 59.6875C104.305 60.0625 104.32 60.5078 104.336 61.0234C104.367 61.5391 104.398 62.0938 104.43 62.6875C104.461 63.2656 104.492 63.8047 104.523 64.3047C104.57 64.8047 104.617 65.2344 104.664 65.5938C104.727 65.9375 104.789 66.125 104.852 66.1562C105.086 66.2969 105.344 66.375 105.625 66.3906C105.906 66.4062 106.18 66.4141 106.445 66.4141C106.633 66.4141 106.922 66.4062 107.312 66.3906C107.719 66.3594 108.133 66.3203 108.555 66.2734C108.977 66.2109 109.367 66.1406 109.727 66.0625C110.086 65.9688 110.328 65.8594 110.453 65.7344C110.5 65.6875 110.531 65.5391 110.547 65.2891C110.578 65.0391 110.594 64.7656 110.594 64.4688C110.609 64.1719 110.617 63.8984 110.617 63.6484C110.633 63.3828 110.641 63.2266 110.641 63.1797C110.641 62.4766 110.625 61.7812 110.594 61.0938C110.562 60.4062 110.531 59.7109 110.5 59.0078L115.047 58.7969C115.141 59.8906 115.227 60.9844 115.305 62.0781C115.383 63.1562 115.484 64.2422 115.609 65.3359C115.656 65.6953 115.68 66.0625 115.68 66.4375C115.695 66.8125 115.711 67.1875 115.727 67.5625C115.758 68.2656 115.773 68.9688 115.773 69.6719C115.789 70.375 115.805 71.0859 115.82 71.8047ZM129.766 68.8516L129.367 72.9766C128.867 73.0078 128.367 73.0312 127.867 73.0469C127.367 73.0781 126.867 73.0938 126.367 73.0938C126.102 73.0938 125.75 73.0859 125.312 73.0703C124.875 73.0547 124.422 73.0312 123.953 73C123.484 72.9531 123.039 72.8984 122.617 72.8359C122.195 72.7578 121.859 72.6641 121.609 72.5547C121.234 72.3828 120.922 72.1562 120.672 71.875C120.438 71.5938 120.242 71.2891 120.086 70.9609C119.93 70.6172 119.805 70.2578 119.711 69.8828C119.617 69.4922 119.547 69.1094 119.5 68.7344C119.453 68.375 119.414 67.9922 119.383 67.5859C119.367 67.1641 119.352 66.7344 119.336 66.2969C119.336 65.8594 119.336 65.4375 119.336 65.0312C119.336 64.6094 119.336 64.2188 119.336 63.8594V63.1562H117.883C117.945 62.4531 117.977 61.7578 117.977 61.0703C117.992 60.3828 118.031 59.6875 118.094 58.9844L119.5 59.0312V55.5625C120.391 55.7344 121.273 55.8281 122.148 55.8438C123.039 55.8438 123.93 55.875 124.82 55.9375L124.773 59.5234L126.742 59.6406C126.742 59.75 126.742 59.8516 126.742 59.9453C126.758 60.0391 126.766 60.1406 126.766 60.25C126.766 60.6875 126.727 61.1172 126.648 61.5391C126.586 61.9453 126.5 62.3594 126.391 62.7812H124.68C124.648 63.5 124.625 64.2188 124.609 64.9375C124.594 65.6562 124.586 66.375 124.586 67.0938C124.586 67.4375 124.594 67.75 124.609 68.0312C124.641 68.2969 124.703 68.5234 124.797 68.7109C124.906 68.8984 125.078 69.0391 125.312 69.1328C125.547 69.2266 125.875 69.2734 126.297 69.2734C126.875 69.2734 127.453 69.2344 128.031 69.1562C128.609 69.0781 129.188 68.9766 129.766 68.8516ZM161.688 67.0703C161.688 67.7266 161.672 68.375 161.641 69.0156C161.625 69.6406 161.586 70.2734 161.523 70.9141C160.867 70.9453 160.234 70.9844 159.625 71.0312C159.031 71.0625 158.406 71.1406 157.75 71.2656C157.938 70.1406 158.031 69.0078 158.031 67.8672C158.031 67.6641 158.016 67.3203 157.984 66.8359C157.953 66.3359 157.906 65.8203 157.844 65.2891C157.797 64.7422 157.727 64.2422 157.633 63.7891C157.555 63.3359 157.461 63.0391 157.352 62.8984C157.273 62.8047 157.156 62.7344 157 62.6875C156.844 62.6406 156.68 62.6094 156.508 62.5938C156.336 62.5625 156.164 62.5469 155.992 62.5469C155.82 62.5312 155.68 62.5234 155.57 62.5234C155.383 62.5234 155.156 62.5312 154.891 62.5469C154.641 62.5625 154.383 62.5938 154.117 62.6406C153.852 62.6719 153.594 62.7266 153.344 62.8047C153.109 62.8828 152.914 62.9766 152.758 63.0859C152.68 63.1484 152.609 63.3125 152.547 63.5781C152.5 63.8438 152.461 64.1641 152.43 64.5391C152.398 64.9141 152.367 65.3203 152.336 65.7578C152.32 66.1953 152.305 66.6094 152.289 67C152.273 67.375 152.266 67.7109 152.266 68.0078C152.266 68.2891 152.266 68.4688 152.266 68.5469C152.266 69.5781 152.289 70.6094 152.336 71.6406C151.883 71.6562 151.438 71.6719 151 71.6875C150.578 71.7031 150.141 71.7109 149.688 71.7109C149.641 71.7109 149.578 71.7109 149.5 71.7109C149.422 71.7109 149.344 71.7031 149.266 71.6875C149.172 71.6875 149.078 71.6797 148.984 71.6641V69.9531C148.984 69.4688 148.977 68.9688 148.961 68.4531C148.945 67.9375 148.93 67.4844 148.914 67.0938C148.898 66.8281 148.875 66.4844 148.844 66.0625C148.812 65.6406 148.742 65.2344 148.633 64.8438C148.523 64.4375 148.359 64.0938 148.141 63.8125C147.938 63.5156 147.648 63.3672 147.273 63.3672C147.102 63.3672 146.867 63.3984 146.57 63.4609C146.289 63.5078 145.992 63.5781 145.68 63.6719C145.383 63.75 145.102 63.8516 144.836 63.9766C144.586 64.0859 144.406 64.2031 144.297 64.3281C144.266 64.3594 144.227 64.5391 144.18 64.8672C144.148 65.1797 144.117 65.5703 144.086 66.0391C144.055 66.4922 144.016 66.9922 143.969 67.5391C143.938 68.0703 143.906 68.5703 143.875 69.0391C143.859 69.5078 143.836 69.9141 143.805 70.2578C143.789 70.5859 143.781 70.7812 143.781 70.8438C143.469 70.875 143.148 70.9062 142.82 70.9375C142.508 70.9531 142.195 70.9609 141.883 70.9609C141.586 70.9609 141.289 70.9531 140.992 70.9375C140.695 70.9219 140.406 70.8984 140.125 70.8672C140.047 68.8828 139.93 66.9219 139.773 64.9844C139.633 63.0469 139.477 61.0859 139.305 59.1016C139.742 59.0547 140.172 59.0156 140.594 58.9844C141.031 58.9375 141.469 58.9141 141.906 58.9141C142.328 58.9141 142.75 58.9219 143.172 58.9375C143.594 58.9531 144.023 58.9688 144.461 58.9844L144.156 61C144.875 60.4219 145.562 59.9922 146.219 59.7109C146.891 59.4297 147.688 59.2891 148.609 59.2891C148.969 59.2891 149.281 59.3359 149.547 59.4297C149.828 59.5078 150.078 59.625 150.297 59.7812C150.531 59.9219 150.758 60.0938 150.977 60.2969C151.195 60.5 151.43 60.7188 151.68 60.9531C151.961 60.5156 152.281 60.1719 152.641 59.9219C153.016 59.6562 153.414 59.4531 153.836 59.3125C154.258 59.1719 154.703 59.0859 155.172 59.0547C155.641 59.0078 156.109 58.9844 156.578 58.9844C156.953 58.9844 157.344 59 157.75 59.0312C158.172 59.0469 158.57 59.1094 158.945 59.2188C159.336 59.3281 159.688 59.4922 160 59.7109C160.312 59.9297 160.555 60.2266 160.727 60.6016C160.93 61.0547 161.094 61.5547 161.219 62.1016C161.344 62.6484 161.438 63.2109 161.5 63.7891C161.578 64.3672 161.625 64.9375 161.641 65.5C161.672 66.0625 161.688 66.5859 161.688 67.0703ZM180.273 64.3047C178.227 64.4141 176.188 64.5078 174.156 64.5859C172.125 64.6484 170.086 64.7188 168.039 64.7969C168.023 64.8594 168.016 64.9219 168.016 64.9844C168.016 65.0469 168.016 65.1094 168.016 65.1719C168.016 65.7031 168.133 66.1094 168.367 66.3906C168.617 66.6719 168.922 66.875 169.281 67C169.641 67.1094 170.039 67.1719 170.477 67.1875C170.914 67.2031 171.32 67.2109 171.695 67.2109C172.742 67.2109 173.789 67.1797 174.836 67.1172C175.883 67.0391 176.938 66.9609 178 66.8828L178.188 70.6094C177.156 70.6562 176.125 70.6953 175.094 70.7266C174.078 70.7578 173.055 70.7734 172.023 70.7734C171.805 70.7734 171.398 70.7734 170.805 70.7734C170.227 70.7578 169.602 70.7344 168.93 70.7031C168.273 70.6562 167.656 70.6016 167.078 70.5391C166.5 70.4766 166.117 70.3906 165.93 70.2812C165.445 70 165.062 69.6406 164.781 69.2031C164.516 68.7656 164.305 68.2891 164.148 67.7734C164.008 67.2578 163.906 66.7344 163.844 66.2031C163.797 65.6562 163.766 65.1328 163.75 64.6328C163.734 64.5547 163.727 64.4766 163.727 64.3984C163.742 64.3047 163.75 64.2188 163.75 64.1406C163.75 63.3125 163.836 62.5469 164.008 61.8438C164.195 61.125 164.531 60.4297 165.016 59.7578C165.344 59.2891 165.828 58.8984 166.469 58.5859C167.109 58.2734 167.805 58.0312 168.555 57.8594C169.305 57.6719 170.055 57.5469 170.805 57.4844C171.555 57.4062 172.203 57.3672 172.75 57.3672C173.234 57.3672 173.828 57.4141 174.531 57.5078C175.234 57.5859 175.93 57.7266 176.617 57.9297C177.32 58.1328 177.953 58.3984 178.516 58.7266C179.078 59.0391 179.461 59.4297 179.664 59.8984C179.695 59.9922 179.727 60.1562 179.758 60.3906C179.805 60.6094 179.852 60.8672 179.898 61.1641C179.945 61.4453 179.984 61.75 180.016 62.0781C180.062 62.4062 180.102 62.7188 180.133 63.0156C180.164 63.3125 180.188 63.5781 180.203 63.8125C180.234 64.0469 180.258 64.2109 180.273 64.3047ZM177.086 62.5938C176.992 61.9062 176.812 61.3672 176.547 60.9766C176.297 60.5703 175.977 60.2734 175.586 60.0859C175.211 59.8828 174.773 59.7578 174.273 59.7109C173.789 59.6484 173.266 59.6172 172.703 59.6172C172.516 59.6172 172.281 59.625 172 59.6406C171.719 59.6406 171.438 59.6641 171.156 59.7109C170.875 59.7422 170.609 59.7969 170.359 59.875C170.109 59.9531 169.914 60.0625 169.773 60.2031C169.664 60.2969 169.57 60.4297 169.492 60.6016C169.43 60.7578 169.375 60.9297 169.328 61.1172C169.281 61.3047 169.242 61.4922 169.211 61.6797C169.195 61.8516 169.188 62 169.188 62.125C169.188 62.375 169.211 62.6172 169.258 62.8516L177.086 62.5938Z" fill="white"/>
</g>
<defs>
<filter id="filter0_d_7_58" x="0.2" y="0.2" width="245.6" height="155.6" filterUnits="userSpaceOnUse" color-interpolation-filters="sRGB">
<feFlood flood-opacity="0" result="BackgroundImageFix"/>
<feColorMatrix in="SourceAlpha" type="matrix" values="0 0 0 0 0 0 0 0 0 0 0 0 0 0 0 0 0 0 127 0" result="hardAlpha"/>
<feOffset dx="4" dy="12"/>
<feGaussianBlur stdDeviation="6.4"/>
<feComposite in2="hardAlpha" operator="out"/>
<feColorMatrix type="matrix" values="0 0 0 0 0 0 0 0 0 0 0 0 0 0 0 0 0 0 0.25 0"/>
<feBlend mode="normal" in2="BackgroundImageFix" result="effect1_dropShadow_7_58"/>
<feBlend mode="normal" in="SourceGraphic" in2="effect1_dropShadow_7_58" result="shape"/>
</filter>
<filter id="filter1_d_7_58" x="36.7266" y="55.5625" width="147.547" height="25.5312" filterUnits="userSpaceOnUse" color-interpolation-filters="sRGB">
<feFlood flood-opacity="0" result="BackgroundImageFix"/>
<feColorMatrix in="SourceAlpha" type="matrix" values="0 0 0 0 0 0 0 0 0 0 0 0 0 0 0 0 0 0 127 0" result="hardAlpha"/>
<feOffset dy="4"/>
<feGaussianBlur stdDeviation="2"/>
<feComposite in2="hardAlpha" operator="out"/>
<feColorMatrix type="matrix" values="0 0 0 0 0 0 0 0 0 0 0 0 0 0 0 0 0 0 0.6 0"/>
<feBlend mode="normal" in2="BackgroundImageFix" result="effect1_dropShadow_7_58"/>
<feBlend mode="normal" in="SourceGraphic" in2="effect1_dropShadow_7_58" result="shape"/>
</filter>
</defs>
</svg>
