<svg width="372" height="174" viewBox="0 0 372 174" fill="none" xmlns="http://www.w3.org/2000/svg">
<path fill-rule="evenodd" clip-rule="evenodd" d="M45.3331 100.614C46.0917 89.7248 9.08429 82.0892 5.49816 71.0714C1.92619 60.0971 18.3774 51.0936 25.9737 41.1353C36.197 27.7332 28.5055 6.80619 58.3561 1.77777C88.7326 -3.33925 121.506 17.7892 155.592 19.3008C186.841 20.6867 212.346 4.79979 242.565 9.94701C271.978 14.9571 285.287 31.1899 299.273 43.7749C311.285 54.583 313.81 66.2058 317.886 77.7205C321.313 87.4034 314.287 96.9172 321.437 106.398C332.87 121.555 374.904 133.959 371.719 149.092C368.953 162.234 337.525 173.158 307.33 173.419C271.173 173.731 242.98 151.771 206.486 150.521C181.744 149.673 173.42 165.737 150.034 168.032C124.823 170.505 96.2913 168.707 70.8054 163.832C43.6752 158.642 5.77453 151.987 0.732262 139.473C-5.50836 123.985 44.2652 115.94 45.3331 100.614Z" fill="#7CA6F4"/>
</svg>
