<svg width="416" height="182" viewBox="0 0 416 182" fill="none" xmlns="http://www.w3.org/2000/svg">
<path fill-rule="evenodd" clip-rule="evenodd" d="M414.838 81.7429C417.326 98.1309 396.11 113.644 379.014 128.83C361.421 144.458 346.906 162.212 313.571 171.697C280.331 181.154 237.539 183.39 200.847 179.524C167.048 175.961 150.658 160.111 122.448 151.554C98.9445 144.426 67.3412 142.973 48.8346 133.418C29.1375 123.248 22.4078 109.655 15.5564 96.3648C7.34481 80.4358 -7.72466 64.0369 4.8199 48.0373C17.7905 31.4944 46.4821 14.7675 83.9568 9.12596C121.748 3.43682 156.149 20.7977 195.323 19.3587C234.513 17.9191 268.719 -3.59719 305.735 0.979193C341.276 5.37309 346.89 26.564 365.594 40.4095C383.935 53.9862 412.384 65.574 414.838 81.7429Z" fill="#7CA6F4"/>
</svg>
