<svg width="368" height="193" viewBox="0 0 368 193" fill="none" xmlns="http://www.w3.org/2000/svg">
<path fill-rule="evenodd" clip-rule="evenodd" d="M180.242 25.841C206.946 31.0731 235.097 28.4228 260.613 35.6495C289.245 43.7589 315.955 54.8858 334.08 69.4121C353.636 85.0847 369.872 103.482 366.654 120.634C363.464 137.637 336.308 148.083 316.98 160.555C298.704 172.347 284.573 187.44 256.247 191.874C228.237 196.259 196.405 185.784 165.766 184.227C130.841 182.452 94.77 192.596 63.2531 182.067C32.028 171.635 16.6403 150.404 9.21715 131.926C2.46472 115.118 25.0252 101.353 24.1103 84.6309C23.0856 65.902 -8.22882 45.6976 3.58907 29.0615C15.3047 12.5692 49.1368 1.58522 83.5494 0.957867C117.561 0.337822 146.457 19.2216 180.242 25.841Z" fill="#7CA6F4"/>
</svg>
