<svg width="224" height="153" viewBox="0 0 224 153" fill="none" xmlns="http://www.w3.org/2000/svg">
<g filter="url(#filter0_d_7_56)">
<path fill-rule="evenodd" clip-rule="evenodd" d="M9.36292 60.2454C7.74279 51.5571 22.7671 44.9862 27.6185 36.7616C33.3 27.1298 25.7585 13.3206 40.4556 7.53448C55.4116 1.64646 76.5282 11.2487 94.8131 10.3078C110.761 9.48711 124.322 0.237131 139.968 2.41359C155.583 4.58568 163.739 14.3741 174.174 21.3471C183.293 27.4408 193.162 33.3752 197.594 40.9201C201.85 48.1633 197.523 55.837 198.881 63.4007C200.416 71.947 208.205 80.0717 206.148 88.544C203.828 98.0988 201.776 110.61 186.422 114.719C169.758 119.178 150.37 105.891 132.368 108.288C113.346 110.82 106.176 128.228 86.546 128.016C68.8239 127.824 57.5638 115.959 48.152 107.376C39.8388 99.794 42.6942 90.0371 36.0469 81.9603C29.3986 73.8823 11.0061 69.0573 9.36292 60.2454Z" fill="#AC2F6B"/>
</g>
<g filter="url(#filter1_d_7_56)">
<path d="M67.3125 59.6484C67.3125 60.3672 67.2188 61.0625 67.0312 61.7344C66.9219 61.75 66.5938 61.7734 66.0469 61.8047C65.5156 61.8203 64.875 61.8516 64.125 61.8984C63.3906 61.9297 62.5938 61.9766 61.7344 62.0391C60.8906 62.0859 60.1016 62.1406 59.3672 62.2031C58.6484 62.2656 58.0312 62.3359 57.5156 62.4141C57.0156 62.4766 56.7344 62.5391 56.6719 62.6016C56.4219 62.8203 56.2344 63.0859 56.1094 63.3984C55.9844 63.7109 55.9219 64.0234 55.9219 64.3359C55.9219 64.5234 55.9375 64.6719 55.9688 64.7812C56.0156 64.875 56.0859 64.9844 56.1797 65.1094C56.2266 65.1562 56.3906 65.1953 56.6719 65.2266C56.9531 65.2578 57.2656 65.2812 57.6094 65.2969C57.9531 65.3125 58.2734 65.3281 58.5703 65.3438C58.8672 65.3438 59.0391 65.3438 59.0859 65.3438C60.2109 65.3438 61.3359 65.3203 62.4609 65.2734C63.5859 65.2266 64.7109 65.1641 65.8359 65.0859L66.0234 69.1172C64.4609 69.2422 62.8906 69.3672 61.3125 69.4922C59.75 69.6016 58.1797 69.6562 56.6016 69.6562C56.5234 69.6562 56.4062 69.6562 56.25 69.6562C56.1094 69.6562 55.9531 69.6562 55.7812 69.6562C55.6094 69.6406 55.4453 69.625 55.2891 69.6094C55.1328 69.5938 55.0234 69.5781 54.9609 69.5625C54.6328 69.4688 54.3047 69.3672 53.9766 69.2578C53.6641 69.1328 53.3672 68.9844 53.0859 68.8125C52.8047 68.625 52.5547 68.4062 52.3359 68.1562C52.1328 67.9062 51.9844 67.6016 51.8906 67.2422C51.8281 67.0078 51.7734 66.7031 51.7266 66.3281C51.6953 65.9375 51.6719 65.5391 51.6562 65.1328C51.6406 64.7266 51.625 64.3281 51.6094 63.9375C51.6094 63.5469 51.6094 63.2188 51.6094 62.9531C51.6094 62.3438 51.6172 61.7734 51.6328 61.2422C51.6484 60.7109 51.7344 60.2266 51.8906 59.7891C52.0469 59.3359 52.2969 58.9375 52.6406 58.5938C53 58.2344 53.5078 57.9219 54.1641 57.6562C54.4609 57.5312 54.9062 57.4375 55.5 57.375C56.0938 57.2969 56.7109 57.2422 57.3516 57.2109C58.0078 57.1641 58.6328 57.1328 59.2266 57.1172C59.8203 57.1016 60.2812 57.0938 60.6094 57.0938C61.7031 57.0938 62.7891 57.1172 63.8672 57.1641C64.9609 57.2109 66.0547 57.2734 67.1484 57.3516C67.1953 57.7422 67.2344 58.1328 67.2656 58.5234C67.2969 58.8984 67.3125 59.2734 67.3125 59.6484ZM86.2969 62.7188C86.2969 62.8438 86.2969 62.9688 86.2969 63.0938C86.2969 63.2031 86.2891 63.3203 86.2734 63.4453C86.2578 63.6641 86.2188 64.0234 86.1562 64.5234C86.0938 65.0234 86.0078 65.5469 85.8984 66.0938C85.7891 66.625 85.6562 67.1172 85.5 67.5703C85.3438 68.0234 85.1719 68.3125 84.9844 68.4375C84.8906 68.5 84.5703 68.5547 84.0234 68.6016C83.4922 68.6484 82.8359 68.6953 82.0547 68.7422C81.2891 68.7891 80.4531 68.8281 79.5469 68.8594C78.6406 68.8906 77.7734 68.9219 76.9453 68.9531C76.1328 68.9688 75.4141 68.9844 74.7891 69C74.1797 69.0156 73.7734 69.0234 73.5703 69.0234C73.4766 69.0234 73.3125 69.0234 73.0781 69.0234C72.8594 69.0234 72.625 69.0234 72.375 69.0234C72.125 69.0078 71.8906 68.9922 71.6719 68.9766C71.4531 68.9609 71.2969 68.9375 71.2031 68.9062C70.9844 68.8281 70.7656 68.7031 70.5469 68.5312C70.3281 68.3438 70.125 68.1406 69.9375 67.9219C69.75 67.6875 69.5781 67.4531 69.4219 67.2188C69.2812 66.9688 69.1797 66.7344 69.1172 66.5156C69.0703 66.3438 69.0312 66.0859 69 65.7422C68.9688 65.3828 68.9453 65.0156 68.9297 64.6406C68.9141 64.25 68.8984 63.875 68.8828 63.5156C68.8828 63.1562 68.8828 62.8828 68.8828 62.6953C68.8828 62.3984 68.8906 61.9922 68.9062 61.4766C68.9219 60.9453 68.9688 60.4062 69.0469 59.8594C69.125 59.3125 69.2344 58.8047 69.375 58.3359C69.5312 57.8516 69.75 57.5156 70.0312 57.3281C70.1562 57.25 70.3906 57.1797 70.7344 57.1172C71.0781 57.0547 71.4844 57 71.9531 56.9531C72.4219 56.9062 72.9219 56.875 73.4531 56.8594C73.9844 56.8281 74.5 56.8125 75 56.8125C75.5156 56.7969 75.9922 56.7891 76.4297 56.7891C76.8672 56.7891 77.2188 56.7969 77.4844 56.8125C77.7188 56.8281 78.0547 56.8438 78.4922 56.8594C78.9297 56.8594 79.4141 56.8672 79.9453 56.8828C80.4922 56.8984 81.0547 56.9297 81.6328 56.9766C82.2109 57.0078 82.75 57.0547 83.25 57.1172C83.75 57.1797 84.1875 57.2656 84.5625 57.375C84.9531 57.4688 85.2109 57.5859 85.3359 57.7266C85.5391 57.9453 85.7031 58.2734 85.8281 58.7109C85.9531 59.1484 86.0469 59.6172 86.1094 60.1172C86.1875 60.6016 86.2344 61.0859 86.25 61.5703C86.2812 62.0391 86.2969 62.4219 86.2969 62.7188ZM81.3281 63.2109C81.3281 63.0234 81.3203 62.8047 81.3047 62.5547C81.2891 62.3047 81.2656 62.0547 81.2344 61.8047C81.2031 61.5391 81.1562 61.2891 81.0938 61.0547C81.0312 60.8047 80.9531 60.6016 80.8594 60.4453C80.7344 60.2422 80.4922 60.0859 80.1328 59.9766C79.7734 59.8672 79.375 59.7891 78.9375 59.7422C78.5156 59.6797 78.0938 59.6406 77.6719 59.625C77.2656 59.6094 76.9609 59.6016 76.7578 59.6016C76.6484 59.6016 76.4531 59.6094 76.1719 59.625C75.8906 59.625 75.5938 59.6328 75.2812 59.6484C74.9844 59.6641 74.7031 59.6953 74.4375 59.7422C74.1719 59.7734 74 59.8125 73.9219 59.8594C73.7812 59.9531 73.6719 60.1016 73.5938 60.3047C73.5156 60.4922 73.4531 60.7031 73.4062 60.9375C73.375 61.1719 73.3516 61.4062 73.3359 61.6406C73.3359 61.8594 73.3359 62.0391 73.3359 62.1797C73.3359 62.3203 73.3438 62.5781 73.3594 62.9531C73.3906 63.3125 73.4219 63.7031 73.4531 64.125C73.5 64.5312 73.5547 64.9062 73.6172 65.25C73.6797 65.5938 73.7578 65.8125 73.8516 65.9062C73.9609 66.0312 74.1641 66.1328 74.4609 66.2109C74.7734 66.2891 75.1016 66.3594 75.4453 66.4219C75.8047 66.4688 76.1484 66.5078 76.4766 66.5391C76.8047 66.5547 77.0391 66.5625 77.1797 66.5625C77.4297 66.5625 77.7266 66.5547 78.0703 66.5391C78.4141 66.5234 78.7578 66.4844 79.1016 66.4219C79.4609 66.3594 79.7969 66.2734 80.1094 66.1641C80.4219 66.0547 80.6719 65.9062 80.8594 65.7188C80.9688 65.6094 81.0547 65.4453 81.1172 65.2266C81.1797 65.0078 81.2266 64.7734 81.2578 64.5234C81.2891 64.2734 81.3047 64.0312 81.3047 63.7969C81.3203 63.5469 81.3281 63.3516 81.3281 63.2109ZM102.398 65.0391C102.398 65.4609 102.398 65.8906 102.398 66.3281C102.398 66.75 102.383 67.1719 102.352 67.5938L97.125 67.9219C97.1875 67.1094 97.2344 66.3047 97.2656 65.5078C97.3125 64.7109 97.3359 63.8984 97.3359 63.0703C97.3359 62.9922 97.3359 62.8594 97.3359 62.6719C97.3359 62.4844 97.3281 62.2891 97.3125 62.0859C97.2969 61.8672 97.2812 61.6641 97.2656 61.4766C97.25 61.2891 97.2344 61.1562 97.2188 61.0781C97.1406 60.8594 97.0547 60.6719 96.9609 60.5156C96.8828 60.3594 96.7812 60.2344 96.6562 60.1406C96.5469 60.0469 96.4062 59.9844 96.2344 59.9531C96.0625 59.9062 95.8516 59.8828 95.6016 59.8828C95.4141 59.8828 95.1719 59.8984 94.875 59.9297C94.5938 59.9609 94.3047 60.0078 94.0078 60.0703C93.7109 60.1328 93.4297 60.2109 93.1641 60.3047C92.8984 60.3984 92.7109 60.5078 92.6016 60.6328L92.5547 67.5469C92.5234 67.4844 92.4297 67.4531 92.2734 67.4531C92.1328 67.4531 92.0312 67.4531 91.9688 67.4531C91.5 67.4531 91.0156 67.4766 90.5156 67.5234C90.0156 67.5547 89.5312 67.6016 89.0625 67.6641C88.8594 65.8203 88.6797 63.9844 88.5234 62.1562C88.3672 60.3281 88.1875 58.4922 87.9844 56.6484C88.2969 56.6328 88.6094 56.625 88.9219 56.625C89.2344 56.6094 89.5469 56.6016 89.8594 56.6016C90.2656 56.6016 90.6719 56.6172 91.0781 56.6484C91.5 56.6641 91.9141 56.6797 92.3203 56.6953L92.4844 58.5C92.9219 57.7812 93.5156 57.1797 94.2656 56.6953C95.0156 56.2109 95.8203 55.9688 96.6797 55.9688C97.1172 55.9688 97.5703 55.9922 98.0391 56.0391C98.5078 56.0859 98.9531 56.1797 99.375 56.3203C99.8125 56.4609 100.219 56.6562 100.594 56.9062C100.984 57.1562 101.312 57.4766 101.578 57.8672C101.703 58.0547 101.805 58.3359 101.883 58.7109C101.977 59.0703 102.055 59.4844 102.117 59.9531C102.18 60.4062 102.227 60.8906 102.258 61.4062C102.305 61.9219 102.336 62.4141 102.352 62.8828C102.367 63.3516 102.375 63.7812 102.375 64.1719C102.391 64.5469 102.398 64.8359 102.398 65.0391ZM116.32 67.8516L115.922 71.9766C115.422 72.0078 114.922 72.0312 114.422 72.0469C113.922 72.0781 113.422 72.0938 112.922 72.0938C112.656 72.0938 112.305 72.0859 111.867 72.0703C111.43 72.0547 110.977 72.0312 110.508 72C110.039 71.9531 109.594 71.8984 109.172 71.8359C108.75 71.7578 108.414 71.6641 108.164 71.5547C107.789 71.3828 107.477 71.1562 107.227 70.875C106.992 70.5938 106.797 70.2891 106.641 69.9609C106.484 69.6172 106.359 69.2578 106.266 68.8828C106.172 68.4922 106.102 68.1094 106.055 67.7344C106.008 67.375 105.969 66.9922 105.938 66.5859C105.922 66.1641 105.906 65.7344 105.891 65.2969C105.891 64.8594 105.891 64.4375 105.891 64.0312C105.891 63.6094 105.891 63.2188 105.891 62.8594V62.1562H104.438C104.5 61.4531 104.531 60.7578 104.531 60.0703C104.547 59.3828 104.586 58.6875 104.648 57.9844L106.055 58.0312V54.5625C106.945 54.7344 107.828 54.8281 108.703 54.8438C109.594 54.8438 110.484 54.875 111.375 54.9375L111.328 58.5234L113.297 58.6406C113.297 58.75 113.297 58.8516 113.297 58.9453C113.312 59.0391 113.32 59.1406 113.32 59.25C113.32 59.6875 113.281 60.1172 113.203 60.5391C113.141 60.9453 113.055 61.3594 112.945 61.7812H111.234C111.203 62.5 111.18 63.2188 111.164 63.9375C111.148 64.6562 111.141 65.375 111.141 66.0938C111.141 66.4375 111.148 66.75 111.164 67.0312C111.195 67.2969 111.258 67.5234 111.352 67.7109C111.461 67.8984 111.633 68.0391 111.867 68.1328C112.102 68.2266 112.43 68.2734 112.852 68.2734C113.43 68.2734 114.008 68.2344 114.586 68.1562C115.164 68.0781 115.742 67.9766 116.32 67.8516ZM132.938 61.4297C132.938 62.7422 132.891 64.0469 132.797 65.3438C132.703 66.6406 132.609 67.9375 132.516 69.2344C130.766 69.3906 129.023 69.5234 127.289 69.6328C125.555 69.7422 123.812 69.7969 122.062 69.7969C121.906 69.7969 121.617 69.7969 121.195 69.7969C120.773 69.7812 120.328 69.7656 119.859 69.75C119.391 69.7188 118.945 69.6875 118.523 69.6562C118.102 69.6094 117.82 69.5469 117.68 69.4688C117.164 69.1875 116.805 68.8359 116.602 68.4141C116.398 67.9766 116.297 67.4844 116.297 66.9375C116.297 66.75 116.305 66.5 116.32 66.1875C116.336 65.875 116.367 65.5469 116.414 65.2031C116.461 64.8594 116.523 64.5391 116.602 64.2422C116.68 63.9453 116.773 63.7266 116.883 63.5859C117.023 63.3984 117.344 63.2422 117.844 63.1172C118.344 62.9766 118.938 62.8672 119.625 62.7891C120.328 62.7109 121.078 62.6484 121.875 62.6016C122.688 62.5547 123.461 62.5234 124.195 62.5078C124.93 62.4766 125.586 62.4609 126.164 62.4609C126.742 62.4609 127.156 62.4609 127.406 62.4609C127.453 62.1172 127.477 61.7812 127.477 61.4531C127.477 61.4219 127.477 61.3438 127.477 61.2188C127.477 61.0781 127.469 60.9922 127.453 60.9609C127.406 60.8672 127.258 60.7891 127.008 60.7266C126.758 60.6641 126.445 60.6172 126.07 60.5859C125.711 60.5547 125.312 60.5312 124.875 60.5156C124.453 60.4844 124.039 60.4688 123.633 60.4688C123.227 60.4688 122.867 60.4688 122.555 60.4688C122.242 60.4688 122.016 60.4688 121.875 60.4688C120.891 60.4688 119.906 60.4922 118.922 60.5391C117.938 60.5703 116.953 60.6016 115.969 60.6328C116.031 60.0391 116.078 59.4375 116.109 58.8281C116.156 58.2188 116.164 57.6172 116.133 57.0234C117.273 56.8203 118.414 56.6797 119.555 56.6016C120.711 56.5078 121.875 56.4609 123.047 56.4609C123.469 56.4609 123.93 56.4688 124.43 56.4844C124.93 56.4844 125.43 56.5 125.93 56.5312C126.43 56.5469 126.922 56.5781 127.406 56.625C127.906 56.6719 128.367 56.7344 128.789 56.8125C129.227 56.8906 129.656 57.0312 130.078 57.2344C130.516 57.4375 130.922 57.6875 131.297 57.9844C131.672 58.2812 132 58.625 132.281 59.0156C132.562 59.3906 132.766 59.7969 132.891 60.2344C132.906 60.2812 132.914 60.3594 132.914 60.4688C132.93 60.5781 132.938 60.7031 132.938 60.8438C132.938 60.9688 132.938 61.0859 132.938 61.1953C132.938 61.3047 132.938 61.3828 132.938 61.4297ZM127.711 66.9375V63.9375C127.258 63.9219 126.805 63.9141 126.352 63.9141C125.898 63.8984 125.445 63.8906 124.992 63.8906C124.898 63.8906 124.633 63.8984 124.195 63.9141C123.773 63.9141 123.312 63.9297 122.812 63.9609C122.328 63.9922 121.883 64.0312 121.477 64.0781C121.07 64.125 120.836 64.1953 120.773 64.2891C120.695 64.4141 120.641 64.5469 120.609 64.6875C120.594 64.8125 120.586 64.9453 120.586 65.0859C120.586 65.1953 120.594 65.3438 120.609 65.5312C120.625 65.7188 120.648 65.9141 120.68 66.1172C120.727 66.3203 120.773 66.5078 120.82 66.6797C120.867 66.8516 120.93 66.9766 121.008 67.0547C121.07 67.1328 121.172 67.1953 121.312 67.2422C121.469 67.2734 121.633 67.3047 121.805 67.3359C121.977 67.3516 122.148 67.3672 122.32 67.3828C122.492 67.3828 122.625 67.3828 122.719 67.3828C123.094 67.3828 123.492 67.3672 123.914 67.3359C124.352 67.3047 124.789 67.2734 125.227 67.2422C125.68 67.1953 126.117 67.1484 126.539 67.1016C126.961 67.0391 127.352 66.9844 127.711 66.9375ZM150.562 59.6484C150.562 60.3672 150.469 61.0625 150.281 61.7344C150.172 61.75 149.844 61.7734 149.297 61.8047C148.766 61.8203 148.125 61.8516 147.375 61.8984C146.641 61.9297 145.844 61.9766 144.984 62.0391C144.141 62.0859 143.352 62.1406 142.617 62.2031C141.898 62.2656 141.281 62.3359 140.766 62.4141C140.266 62.4766 139.984 62.5391 139.922 62.6016C139.672 62.8203 139.484 63.0859 139.359 63.3984C139.234 63.7109 139.172 64.0234 139.172 64.3359C139.172 64.5234 139.188 64.6719 139.219 64.7812C139.266 64.875 139.336 64.9844 139.43 65.1094C139.477 65.1562 139.641 65.1953 139.922 65.2266C140.203 65.2578 140.516 65.2812 140.859 65.2969C141.203 65.3125 141.523 65.3281 141.82 65.3438C142.117 65.3438 142.289 65.3438 142.336 65.3438C143.461 65.3438 144.586 65.3203 145.711 65.2734C146.836 65.2266 147.961 65.1641 149.086 65.0859L149.273 69.1172C147.711 69.2422 146.141 69.3672 144.562 69.4922C143 69.6016 141.43 69.6562 139.852 69.6562C139.773 69.6562 139.656 69.6562 139.5 69.6562C139.359 69.6562 139.203 69.6562 139.031 69.6562C138.859 69.6406 138.695 69.625 138.539 69.6094C138.383 69.5938 138.273 69.5781 138.211 69.5625C137.883 69.4688 137.555 69.3672 137.227 69.2578C136.914 69.1328 136.617 68.9844 136.336 68.8125C136.055 68.625 135.805 68.4062 135.586 68.1562C135.383 67.9062 135.234 67.6016 135.141 67.2422C135.078 67.0078 135.023 66.7031 134.977 66.3281C134.945 65.9375 134.922 65.5391 134.906 65.1328C134.891 64.7266 134.875 64.3281 134.859 63.9375C134.859 63.5469 134.859 63.2188 134.859 62.9531C134.859 62.3438 134.867 61.7734 134.883 61.2422C134.898 60.7109 134.984 60.2266 135.141 59.7891C135.297 59.3359 135.547 58.9375 135.891 58.5938C136.25 58.2344 136.758 57.9219 137.414 57.6562C137.711 57.5312 138.156 57.4375 138.75 57.375C139.344 57.2969 139.961 57.2422 140.602 57.2109C141.258 57.1641 141.883 57.1328 142.477 57.1172C143.07 57.1016 143.531 57.0938 143.859 57.0938C144.953 57.0938 146.039 57.1172 147.117 57.1641C148.211 57.2109 149.305 57.2734 150.398 57.3516C150.445 57.7422 150.484 58.1328 150.516 58.5234C150.547 58.8984 150.562 59.2734 150.562 59.6484ZM163.781 67.8516L163.383 71.9766C162.883 72.0078 162.383 72.0312 161.883 72.0469C161.383 72.0781 160.883 72.0938 160.383 72.0938C160.117 72.0938 159.766 72.0859 159.328 72.0703C158.891 72.0547 158.438 72.0312 157.969 72C157.5 71.9531 157.055 71.8984 156.633 71.8359C156.211 71.7578 155.875 71.6641 155.625 71.5547C155.25 71.3828 154.938 71.1562 154.688 70.875C154.453 70.5938 154.258 70.2891 154.102 69.9609C153.945 69.6172 153.82 69.2578 153.727 68.8828C153.633 68.4922 153.562 68.1094 153.516 67.7344C153.469 67.375 153.43 66.9922 153.398 66.5859C153.383 66.1641 153.367 65.7344 153.352 65.2969C153.352 64.8594 153.352 64.4375 153.352 64.0312C153.352 63.6094 153.352 63.2188 153.352 62.8594V62.1562H151.898C151.961 61.4531 151.992 60.7578 151.992 60.0703C152.008 59.3828 152.047 58.6875 152.109 57.9844L153.516 58.0312V54.5625C154.406 54.7344 155.289 54.8281 156.164 54.8438C157.055 54.8438 157.945 54.875 158.836 54.9375L158.789 58.5234L160.758 58.6406C160.758 58.75 160.758 58.8516 160.758 58.9453C160.773 59.0391 160.781 59.1406 160.781 59.25C160.781 59.6875 160.742 60.1172 160.664 60.5391C160.602 60.9453 160.516 61.3594 160.406 61.7812H158.695C158.664 62.5 158.641 63.2188 158.625 63.9375C158.609 64.6562 158.602 65.375 158.602 66.0938C158.602 66.4375 158.609 66.75 158.625 67.0312C158.656 67.2969 158.719 67.5234 158.812 67.7109C158.922 67.8984 159.094 68.0391 159.328 68.1328C159.562 68.2266 159.891 68.2734 160.312 68.2734C160.891 68.2734 161.469 68.2344 162.047 68.1562C162.625 68.0781 163.203 67.9766 163.781 67.8516Z" fill="white"/>
</g>
<defs>
<filter id="filter0_d_7_56" x="0.441333" y="1.28295" width="222.85" height="151.535" filterUnits="userSpaceOnUse" color-interpolation-filters="sRGB">
<feFlood flood-opacity="0" result="BackgroundImageFix"/>
<feColorMatrix in="SourceAlpha" type="matrix" values="0 0 0 0 0 0 0 0 0 0 0 0 0 0 0 0 0 0 127 0" result="hardAlpha"/>
<feOffset dx="4" dy="12"/>
<feGaussianBlur stdDeviation="6.4"/>
<feComposite in2="hardAlpha" operator="out"/>
<feColorMatrix type="matrix" values="0 0 0 0 0 0 0 0 0 0 0 0 0 0 0 0 0 0 0.25 0"/>
<feBlend mode="normal" in2="BackgroundImageFix" result="effect1_dropShadow_7_56"/>
<feBlend mode="normal" in="SourceGraphic" in2="effect1_dropShadow_7_56" result="shape"/>
</filter>
<filter id="filter1_d_7_56" x="47.6094" y="54.5625" width="120.172" height="25.5312" filterUnits="userSpaceOnUse" color-interpolation-filters="sRGB">
<feFlood flood-opacity="0" result="BackgroundImageFix"/>
<feColorMatrix in="SourceAlpha" type="matrix" values="0 0 0 0 0 0 0 0 0 0 0 0 0 0 0 0 0 0 127 0" result="hardAlpha"/>
<feOffset dy="4"/>
<feGaussianBlur stdDeviation="2"/>
<feComposite in2="hardAlpha" operator="out"/>
<feColorMatrix type="matrix" values="0 0 0 0 0 0 0 0 0 0 0 0 0 0 0 0 0 0 0.6 0"/>
<feBlend mode="normal" in2="BackgroundImageFix" result="effect1_dropShadow_7_56"/>
<feBlend mode="normal" in="SourceGraphic" in2="effect1_dropShadow_7_56" result="shape"/>
</filter>
</defs>
</svg>
