<svg width="357" height="203" viewBox="0 0 357 203" fill="none" xmlns="http://www.w3.org/2000/svg">
<path fill-rule="evenodd" clip-rule="evenodd" d="M1.95125 60.0767C14.235 41.1357 64.1156 53.7842 93.466 46.992C111.282 42.869 123.875 34.3839 139.768 28.1835C163.801 18.8077 180.223 -0.537674 211.193 1.06251C242.129 2.66093 279.312 16.754 297.722 36.3447C316.599 56.4338 292.978 77.6879 303.496 99.2878C313.682 120.206 354.592 136.287 356.452 156.954C358.281 177.279 339.609 196.423 312.714 201.704C285.09 207.129 251.404 186.972 220.066 183.738C199.044 181.569 181.053 186.127 160.514 186C128.112 185.801 92.2732 198.962 64.1434 182.78C37.5091 167.458 56.7431 141.283 46.0272 120.14C35.409 99.191 -9.26576 77.3728 1.95125 60.0767Z" fill="#7CA6F4"/>
</svg>
