<svg width="382" height="208" viewBox="0 0 382 208" fill="none" xmlns="http://www.w3.org/2000/svg">
<path fill-rule="evenodd" clip-rule="evenodd" d="M357.59 107.389C363.814 90.8783 394.461 73.0793 376.342 58.7358C358.081 44.2788 306.926 53.0494 277.373 43.8848C245.47 33.9917 236.856 10.6813 201.203 4.42408C163.82 -2.13654 119.611 1.06453 84.4679 10.0299C48.9532 19.09 22.0772 35.5268 8.15251 53.6729C-4.93947 70.7338 -0.687271 89.8317 9.82069 107.307C18.863 122.345 46.4374 132.245 63.4266 145.597C79.8776 158.526 85.3173 174.38 108.336 184.732C134.173 196.35 166.398 210.532 201.203 207.553C237.309 204.463 249.329 182.044 276.729 170.319C297.619 161.381 328.437 158.26 343.139 146.819C357.975 135.272 352.554 120.748 357.59 107.389Z" fill="#7CA6F4"/>
</svg>
