<svg width="52" height="52" viewBox="0 0 52 52" fill="none" xmlns="http://www.w3.org/2000/svg">
<path d="M26.0002 4.33337C23.1549 4.33337 20.3374 4.8938 17.7087 5.98265C15.08 7.0715 12.6915 8.66746 10.6795 10.6794C6.61623 14.7427 4.3335 20.2537 4.3335 26C4.3335 35.5767 10.5518 43.7017 19.1535 46.5834C20.2368 46.7567 20.5835 46.085 20.5835 45.5V41.8384C14.5818 43.1384 13.3035 38.935 13.3035 38.935C12.3068 36.4217 10.8985 35.75 10.8985 35.75C8.92683 34.4067 11.0502 34.45 11.0502 34.45C13.2168 34.6017 14.3652 36.6817 14.3652 36.6817C16.2502 39.975 19.4352 39 20.6702 38.48C20.8652 37.0717 21.4285 36.1184 22.0352 35.5767C17.2252 35.035 12.1768 33.1717 12.1768 24.9167C12.1768 22.5117 13.0002 20.5834 14.4085 19.045C14.1918 18.5034 13.4335 16.25 14.6252 13.325C14.6252 13.325 16.4452 12.74 20.5835 15.535C22.2952 15.0584 24.1585 14.82 26.0002 14.82C27.8418 14.82 29.7052 15.0584 31.4168 15.535C35.5552 12.74 37.3752 13.325 37.3752 13.325C38.5668 16.25 37.8085 18.5034 37.5918 19.045C39.0002 20.5834 39.8235 22.5117 39.8235 24.9167C39.8235 33.1934 34.7535 35.0134 29.9218 35.555C30.7018 36.2267 31.4168 37.5484 31.4168 39.5634V45.5C31.4168 46.085 31.7635 46.7784 32.8685 46.5834C41.4702 43.68 47.6668 35.5767 47.6668 26C47.6668 23.1547 47.1064 20.3373 46.0176 17.7086C44.9287 15.0798 43.3327 12.6913 41.3208 10.6794C39.3089 8.66746 36.9204 7.0715 34.2916 5.98265C31.6629 4.8938 28.8455 4.33337 26.0002 4.33337Z" fill="black"/>
</svg>
