<svg width="52" height="52" viewBox="0 0 52 52" fill="none" xmlns="http://www.w3.org/2000/svg">
<path d="M39.8125 0H12.1875C5.45653 0 0 5.45653 0 12.1875V39.8125C0 46.5435 5.45653 52 12.1875 52H39.8125C46.5435 52 52 46.5435 52 39.8125V12.1875C52 5.45653 46.5435 0 39.8125 0Z" fill="url(#paint0_radial_133_36)"/>
<path d="M39.8125 0H12.1875C5.45653 0 0 5.45653 0 12.1875V39.8125C0 46.5435 5.45653 52 12.1875 52H39.8125C46.5435 52 52 46.5435 52 39.8125V12.1875C52 5.45653 46.5435 0 39.8125 0Z" fill="url(#paint1_radial_133_36)"/>
<path d="M26.0009 5.6875C20.4844 5.6875 19.7919 5.71167 17.6254 5.81019C15.4629 5.90931 13.9868 6.25158 12.6954 6.75391C11.3592 7.27269 10.226 7.96677 9.09699 9.09614C7.96701 10.2253 7.27293 11.3585 6.75252 12.6941C6.24877 13.986 5.9061 15.4627 5.8088 17.6241C5.71191 19.7909 5.68652 20.4835 5.68652 26.0002C5.68652 31.5169 5.7109 32.2071 5.80921 34.3736C5.90874 36.5361 6.25101 38.0122 6.75293 39.3037C7.27212 40.6398 7.9662 41.7731 9.09557 42.902C10.2243 44.032 11.3576 44.7277 12.6927 45.2465C13.9852 45.7488 15.4615 46.0911 17.6236 46.1902C19.7903 46.2887 20.4822 46.3129 25.9984 46.3129C31.5155 46.3129 32.2057 46.2887 34.3722 46.1902C36.5347 46.0911 38.0124 45.7488 39.3049 45.2465C40.6405 44.7277 41.7721 44.032 42.9007 42.902C44.0306 41.7731 44.7245 40.6398 45.2451 39.3043C45.7444 38.0122 46.0873 36.5357 46.1888 34.374C46.2861 32.2075 46.3115 31.5169 46.3115 26.0002C46.3115 20.4835 46.2861 19.7913 46.1888 17.6245C46.0873 15.4621 45.7444 13.9862 45.2451 12.6947C44.7245 11.3585 44.0306 10.2253 42.9007 9.09614C41.7709 7.96636 40.6409 7.27228 39.3037 6.75411C38.0088 6.25158 36.5319 5.90911 34.3694 5.81019C32.2027 5.71167 31.5129 5.6875 25.9946 5.6875H26.0009ZM24.1786 9.34802C24.7195 9.3472 25.323 9.34802 26.0009 9.34802C31.4245 9.34802 32.0672 9.36752 34.2089 9.46481C36.1894 9.55541 37.2643 9.8863 37.9804 10.1644C38.9283 10.5324 39.6041 10.9726 40.3147 11.6837C41.0256 12.3947 41.4656 13.0717 41.8347 14.0197C42.1127 14.7347 42.444 15.8096 42.5342 17.7901C42.6315 19.9314 42.6526 20.5745 42.6526 25.9955C42.6526 31.4165 42.6315 32.0598 42.5342 34.201C42.4436 36.1814 42.1127 37.2564 41.8347 37.9716C41.4666 38.9196 41.0256 39.5945 40.3147 40.3051C39.6037 41.016 38.9287 41.456 37.9804 41.8242C37.2652 42.1035 36.1894 42.4336 34.2089 42.5242C32.0676 42.6215 31.4245 42.6426 26.0009 42.6426C20.577 42.6426 19.9341 42.6215 17.793 42.5242C15.8125 42.4328 14.7376 42.1019 14.0209 41.8238C13.0732 41.4556 12.3959 41.0156 11.685 40.3047C10.9741 39.5937 10.5341 38.9183 10.165 37.97C9.88695 37.2547 9.55565 36.1798 9.46546 34.1993C9.36816 32.058 9.34866 31.4149 9.34866 25.9905C9.34866 20.566 9.36816 19.9264 9.46546 17.785C9.55606 15.8045 9.88695 14.7296 10.165 14.0136C10.5333 13.0656 10.9741 12.3886 11.6852 11.6777C12.3964 10.9667 13.0732 10.5265 14.0211 10.1577C14.7372 9.87837 15.8125 9.5483 17.793 9.4573C19.6668 9.37259 20.393 9.3472 24.1786 9.34294V9.34802ZM36.8437 12.7207C35.498 12.7207 34.4062 13.8115 34.4062 15.1574C34.4062 16.5031 35.498 17.5949 36.8437 17.5949C38.1894 17.5949 39.2812 16.5031 39.2812 15.1574C39.2812 13.8117 38.1894 12.7199 36.8437 12.7199V12.7207ZM26.0009 15.5687C20.2402 15.5687 15.5696 20.2394 15.5696 26.0002C15.5696 31.761 20.2402 36.4295 26.0009 36.4295C31.7617 36.4295 36.4307 31.761 36.4307 26.0002C36.4307 20.2396 31.7613 15.5687 26.0004 15.5687H26.0009ZM26.0009 19.2292C29.7402 19.2292 32.7718 22.2605 32.7718 26.0002C32.7718 29.7395 29.7402 32.7712 26.0009 32.7712C22.2615 32.7712 19.2301 29.7395 19.2301 26.0002C19.2301 22.2605 22.2613 19.2292 26.0009 19.2292Z" fill="white"/>
<defs>
<radialGradient id="paint0_radial_133_36" cx="0" cy="0" r="1" gradientUnits="userSpaceOnUse" gradientTransform="translate(13.8125 56.005) rotate(-90) scale(51.5359 47.9324)">
<stop stop-color="#FFDD55"/>
<stop offset="0.1" stop-color="#FFDD55"/>
<stop offset="0.5" stop-color="#FF543E"/>
<stop offset="1" stop-color="#C837AB"/>
</radialGradient>
<radialGradient id="paint1_radial_133_36" cx="0" cy="0" r="1" gradientUnits="userSpaceOnUse" gradientTransform="translate(-8.7102 3.74583) rotate(78.681) scale(23.0368 94.9585)">
<stop stop-color="#3771C8"/>
<stop offset="0.128" stop-color="#3771C8"/>
<stop offset="1" stop-color="#6600FF" stop-opacity="0"/>
</radialGradient>
</defs>
</svg>
