<svg width="51" height="51" viewBox="0 0 51 51" fill="none" xmlns="http://www.w3.org/2000/svg">
<path d="M46.2188 1.19513H4.78125C3.84106 1.18556 2.93548 1.54936 2.2632 2.2067C1.59092 2.86403 1.20687 3.76121 1.19531 4.70138V46.3062C1.20896 47.245 1.59393 48.1402 2.26598 48.7958C2.93803 49.4514 3.84242 49.8141 4.78125 49.8045H46.2188C47.159 49.812 48.064 49.4469 48.7359 48.7892C49.4078 48.1314 49.7921 47.2345 49.8047 46.2943V4.68943C49.7879 3.75202 49.4018 2.85911 48.7304 2.20479C48.0589 1.55048 47.1563 1.18763 46.2188 1.19513Z" fill="#0076B2"/>
<path d="M8.39113 19.4158H15.6068V42.6327H8.39113V19.4158ZM12.001 7.86108C12.8286 7.86108 13.6376 8.10655 14.3257 8.56642C15.0137 9.0263 15.55 9.67992 15.8665 10.4446C16.183 11.2093 16.2656 12.0507 16.1039 12.8623C15.9421 13.674 15.5433 14.4194 14.9578 15.0043C14.3723 15.5893 13.6265 15.9874 12.8147 16.1484C12.0029 16.3093 11.1616 16.2259 10.3972 15.9087C9.63284 15.5914 8.97973 15.0546 8.52051 14.3661C8.06129 13.6775 7.8166 12.8683 7.81738 12.0407C7.81844 10.9318 8.25968 9.86874 9.04414 9.08502C9.8286 8.30131 10.8921 7.86108 12.001 7.86108ZM20.1331 19.4158H27.05V22.6033H27.1456C28.1098 20.7784 30.4606 18.854 33.9708 18.854C41.2782 18.838 42.6329 23.6472 42.6329 29.8827V42.6327H35.4171V31.337C35.4171 28.6476 35.3693 25.1851 31.6679 25.1851C27.9664 25.1851 27.3368 28.1176 27.3368 31.1617V42.6327H20.1331V19.4158Z" fill="white"/>
</svg>
