<svg width="225" height="150" viewBox="0 0 225 150" fill="none" xmlns="http://www.w3.org/2000/svg">
<g filter="url(#filter0_d_7_57)">
<path fill-rule="evenodd" clip-rule="evenodd" d="M8.80109 61.0532C8.97546 53.6411 8.85845 45.705 15.8388 39.7087C22.7517 33.7703 38.4991 33.5167 46.9431 28.2884C58.4016 21.1937 56.3488 4.96997 73.5713 3.96266C90.9289 2.94744 97.1047 20.6601 113.855 24.3749C129.529 27.8508 147.012 19.8094 162.445 23.6718C177.897 27.539 188.911 36.3401 196.351 45.021C203.946 53.8825 212.21 64.9521 205.049 73.3806C197.124 82.7068 169 80.4049 158.986 88.9953C150.075 96.6385 164.556 109.595 154.501 116.739C145.169 123.369 126.201 121.938 111.093 123.019C95.8921 124.107 80.6542 125.032 65.3569 123.118C49.1333 121.089 29.6865 119.484 19.8678 111.607C9.61755 103.383 16.9726 92.3666 14.8302 82.5801C13.2352 75.2938 8.62992 68.3298 8.80109 61.0532Z" fill="#E46D2D"/>
</g>
<g filter="url(#filter1_d_7_57)">
<path d="M51.6518 68.5836C51.6518 68.8023 51.644 69.0445 51.6284 69.3102C51.6284 69.5602 51.6049 69.818 51.558 70.0836C51.5268 70.3492 51.4721 70.607 51.394 70.857C51.3315 71.0914 51.2377 71.3023 51.1127 71.4898C50.8471 71.8805 50.5971 72.2164 50.3627 72.4977C50.1284 72.7633 49.8705 72.9898 49.5893 73.1773C49.3237 73.3492 49.019 73.4898 48.6752 73.5992C48.3315 73.7086 47.9252 73.7945 47.4565 73.857C46.7534 73.9664 46.058 74.068 45.3705 74.1617C44.683 74.2398 43.9877 74.2789 43.2846 74.2789C42.9721 74.2789 42.6518 74.2633 42.3237 74.232C41.9955 74.2008 41.6909 74.0992 41.4096 73.9273C41.2534 73.8492 41.0815 73.7477 40.894 73.6227C40.7221 73.482 40.5502 73.3414 40.3784 73.2008C40.2065 73.0445 40.0346 72.8961 39.8627 72.7555C39.7065 72.5992 39.5659 72.4664 39.4409 72.357L39.3002 78.2398C38.8627 78.2711 38.4252 78.2789 37.9877 78.2633C37.5502 78.2633 37.1049 78.2633 36.6518 78.2633C36.3862 78.2633 36.1284 78.2633 35.8784 78.2633C35.644 78.2789 35.394 78.2945 35.1284 78.3102C35.1909 76.9664 35.2455 75.6305 35.2924 74.3023C35.3549 72.9586 35.3862 71.6227 35.3862 70.2945V70.0133C35.3862 68.5289 35.3471 67.0523 35.269 65.5836C35.1909 64.1148 35.1205 62.6383 35.058 61.1539C35.8393 61.0914 36.6127 61.0367 37.3784 60.9898C38.144 60.943 38.9174 60.8883 39.6987 60.8258L39.8627 62.068C40.9409 61.943 42.019 61.8414 43.0971 61.7633C44.1909 61.6695 45.2846 61.6227 46.3784 61.6227C46.519 61.6227 46.6674 61.6227 46.8237 61.6227C46.9955 61.607 47.1518 61.6148 47.2924 61.6461C47.6674 61.7242 48.0502 61.8258 48.4409 61.9508C48.8315 62.0602 49.1987 62.2086 49.5424 62.3961C49.8862 62.5836 50.1909 62.8258 50.4565 63.1227C50.7221 63.4039 50.9252 63.7477 51.0659 64.1539C51.1596 64.4664 51.2455 64.8102 51.3237 65.1852C51.4018 65.5602 51.4643 65.9508 51.5112 66.357C51.558 66.7477 51.5893 67.1383 51.6049 67.5289C51.6362 67.9039 51.6518 68.2555 51.6518 68.5836ZM47.0346 68.1617C47.0346 67.9742 47.019 67.7711 46.9877 67.5523C46.9565 67.3336 46.8784 67.1539 46.7534 67.0133C46.4409 66.6539 46.0502 66.3805 45.5815 66.193C45.1127 65.9898 44.6518 65.8883 44.1987 65.8883C43.8237 65.8883 43.4174 65.9273 42.9799 66.0055C42.5424 66.068 42.1049 66.1617 41.6674 66.2867C41.2299 66.3961 40.8002 66.5289 40.3784 66.6852C39.9565 66.8258 39.5737 66.9664 39.2299 67.107L39.4409 70.2477C40.019 70.4195 40.6362 70.5758 41.2924 70.7164C41.9643 70.857 42.5971 70.9273 43.1909 70.9273C43.3471 70.9273 43.5893 70.9352 43.9174 70.9508C44.2455 70.9508 44.5815 70.943 44.9252 70.9273C45.2846 70.8961 45.6127 70.857 45.9096 70.8102C46.2221 70.7633 46.4252 70.6773 46.519 70.5523C46.5971 70.4586 46.6674 70.3102 46.7299 70.107C46.7924 69.8883 46.8471 69.6617 46.894 69.4273C46.9409 69.1773 46.9721 68.943 46.9877 68.7242C47.019 68.4898 47.0346 68.3023 47.0346 68.1617ZM71.1049 67.2945C71.1049 67.4195 71.1049 67.5445 71.1049 67.6695C71.1049 67.7789 71.0971 67.8961 71.0815 68.0211C71.0659 68.2398 71.0268 68.5992 70.9643 69.0992C70.9018 69.5992 70.8159 70.1227 70.7065 70.6695C70.5971 71.2008 70.4643 71.693 70.308 72.1461C70.1518 72.5992 69.9799 72.8883 69.7924 73.0133C69.6987 73.0758 69.3784 73.1305 68.8315 73.1773C68.3002 73.2242 67.644 73.2711 66.8627 73.318C66.0971 73.3648 65.2612 73.4039 64.3549 73.4352C63.4487 73.4664 62.5815 73.4977 61.7534 73.5289C60.9409 73.5445 60.2221 73.5602 59.5971 73.5758C58.9877 73.5914 58.5815 73.5992 58.3784 73.5992C58.2846 73.5992 58.1205 73.5992 57.8862 73.5992C57.6674 73.5992 57.433 73.5992 57.183 73.5992C56.933 73.5836 56.6987 73.568 56.4799 73.5523C56.2612 73.5367 56.1049 73.5133 56.0112 73.482C55.7924 73.4039 55.5737 73.2789 55.3549 73.107C55.1362 72.9195 54.933 72.7164 54.7455 72.4977C54.558 72.2633 54.3862 72.0289 54.2299 71.7945C54.0893 71.5445 53.9877 71.3102 53.9252 71.0914C53.8784 70.9195 53.8393 70.6617 53.808 70.318C53.7768 69.9586 53.7534 69.5914 53.7377 69.2164C53.7221 68.8258 53.7065 68.4508 53.6909 68.0914C53.6909 67.732 53.6909 67.4586 53.6909 67.2711C53.6909 66.9742 53.6987 66.568 53.7143 66.0523C53.7299 65.5211 53.7768 64.982 53.8549 64.4352C53.933 63.8883 54.0424 63.3805 54.183 62.9117C54.3393 62.4273 54.558 62.0914 54.8393 61.9039C54.9643 61.8258 55.1987 61.7555 55.5424 61.693C55.8862 61.6305 56.2924 61.5758 56.7612 61.5289C57.2299 61.482 57.7299 61.4508 58.2612 61.4352C58.7924 61.4039 59.308 61.3883 59.808 61.3883C60.3237 61.3727 60.8002 61.3648 61.2377 61.3648C61.6752 61.3648 62.0268 61.3727 62.2924 61.3883C62.5268 61.4039 62.8627 61.4195 63.3002 61.4352C63.7377 61.4352 64.2221 61.443 64.7534 61.4586C65.3002 61.4742 65.8627 61.5055 66.4409 61.5523C67.019 61.5836 67.558 61.6305 68.058 61.693C68.558 61.7555 68.9955 61.8414 69.3705 61.9508C69.7612 62.0445 70.019 62.1617 70.144 62.3023C70.3471 62.5211 70.5112 62.8492 70.6362 63.2867C70.7612 63.7242 70.8549 64.193 70.9174 64.693C70.9955 65.1773 71.0424 65.6617 71.058 66.1461C71.0893 66.6148 71.1049 66.9977 71.1049 67.2945ZM66.1362 67.7867C66.1362 67.5992 66.1284 67.3805 66.1127 67.1305C66.0971 66.8805 66.0737 66.6305 66.0424 66.3805C66.0112 66.1148 65.9643 65.8648 65.9018 65.6305C65.8393 65.3805 65.7612 65.1773 65.6674 65.0211C65.5424 64.818 65.3002 64.6617 64.9409 64.5523C64.5815 64.443 64.183 64.3648 63.7455 64.318C63.3237 64.2555 62.9018 64.2164 62.4799 64.2008C62.0737 64.1852 61.769 64.1773 61.5659 64.1773C61.4565 64.1773 61.2612 64.1852 60.9799 64.2008C60.6987 64.2008 60.4018 64.2086 60.0893 64.2242C59.7924 64.2398 59.5112 64.2711 59.2455 64.318C58.9799 64.3492 58.808 64.3883 58.7299 64.4352C58.5893 64.5289 58.4799 64.6773 58.4018 64.8805C58.3237 65.068 58.2612 65.2789 58.2143 65.5133C58.183 65.7477 58.1596 65.982 58.144 66.2164C58.144 66.4352 58.144 66.6148 58.144 66.7555C58.144 66.8961 58.1518 67.1539 58.1674 67.5289C58.1987 67.8883 58.2299 68.2789 58.2612 68.7008C58.308 69.107 58.3627 69.482 58.4252 69.8258C58.4877 70.1695 58.5659 70.3883 58.6596 70.482C58.769 70.607 58.9721 70.7086 59.269 70.7867C59.5815 70.8648 59.9096 70.9352 60.2534 70.9977C60.6127 71.0445 60.9565 71.0836 61.2846 71.1148C61.6127 71.1305 61.8471 71.1383 61.9877 71.1383C62.2377 71.1383 62.5346 71.1305 62.8784 71.1148C63.2221 71.0992 63.5659 71.0602 63.9096 70.9977C64.269 70.9352 64.6049 70.8492 64.9174 70.7398C65.2299 70.6305 65.4799 70.482 65.6674 70.2945C65.7768 70.1852 65.8627 70.0211 65.9252 69.8023C65.9877 69.5836 66.0346 69.3492 66.0659 69.0992C66.0971 68.8492 66.1127 68.607 66.1127 68.3727C66.1284 68.1227 66.1362 67.9273 66.1362 67.7867ZM87.0893 66.6852V67.2242L82.5659 67.4352C82.6127 67.232 82.6362 66.9977 82.6362 66.732C82.6362 66.3414 82.5815 66.0914 82.4721 65.982C82.3627 65.857 82.1205 65.7945 81.7455 65.7945C81.2143 65.7945 80.6284 65.8883 79.9877 66.0758C79.3471 66.2633 78.7846 66.443 78.3002 66.6148C78.2221 67.3023 78.1596 67.9898 78.1127 68.6773C78.0659 69.3648 78.0424 70.0523 78.0424 70.7398C78.0424 71.5055 78.0424 72.2711 78.0424 73.0367C78.058 73.7867 78.0737 74.5445 78.0893 75.3102L74.058 75.568C73.9799 74.568 73.9018 73.5758 73.8237 72.5914C73.7455 71.5914 73.6752 70.5914 73.6127 69.5914C73.5346 68.2633 73.433 66.943 73.308 65.6305C73.183 64.3023 73.058 62.9664 72.933 61.6227C73.8237 61.6852 74.7065 61.7789 75.5815 61.9039C76.4721 62.0133 77.3627 62.1539 78.2534 62.3258L78.1362 64.2945C78.6049 63.9195 79.0502 63.5992 79.4721 63.3336C79.9096 63.0523 80.3471 62.818 80.7846 62.6305C81.2377 62.443 81.7143 62.3102 82.2143 62.232C82.7143 62.1383 83.269 62.0914 83.8784 62.0914C84.2846 62.0914 84.7065 62.1383 85.144 62.232C85.5815 62.3102 85.9565 62.5055 86.269 62.818C86.4252 62.9898 86.558 63.2477 86.6674 63.5914C86.7768 63.9352 86.8627 64.3023 86.9252 64.693C86.9877 65.068 87.0268 65.443 87.0424 65.818C87.0737 66.1773 87.0893 66.4664 87.0893 66.6852ZM99.8159 72.4273L99.4174 76.5523C98.9174 76.5836 98.4174 76.607 97.9174 76.6227C97.4174 76.6539 96.9174 76.6695 96.4174 76.6695C96.1518 76.6695 95.8002 76.6617 95.3627 76.6461C94.9252 76.6305 94.4721 76.607 94.0034 76.5758C93.5346 76.5289 93.0893 76.4742 92.6674 76.4117C92.2455 76.3336 91.9096 76.2398 91.6596 76.1305C91.2846 75.9586 90.9721 75.732 90.7221 75.4508C90.4877 75.1695 90.2924 74.8648 90.1362 74.5367C89.9799 74.193 89.8549 73.8336 89.7612 73.4586C89.6674 73.068 89.5971 72.6852 89.5502 72.3102C89.5034 71.9508 89.4643 71.568 89.433 71.1617C89.4174 70.7398 89.4018 70.3102 89.3862 69.8727C89.3862 69.4352 89.3862 69.0133 89.3862 68.607C89.3862 68.1852 89.3862 67.7945 89.3862 67.4352V66.732H87.933C87.9955 66.0289 88.0268 65.3336 88.0268 64.6461C88.0424 63.9586 88.0815 63.2633 88.144 62.5602L89.5502 62.607V59.1383C90.4409 59.3102 91.3237 59.4039 92.1987 59.4195C93.0893 59.4195 93.9799 59.4508 94.8705 59.5133L94.8237 63.0992L96.7924 63.2164C96.7924 63.3258 96.7924 63.4273 96.7924 63.5211C96.808 63.6148 96.8159 63.7164 96.8159 63.8258C96.8159 64.2633 96.7768 64.693 96.6987 65.1148C96.6362 65.5211 96.5502 65.9352 96.4409 66.357H94.7299C94.6987 67.0758 94.6752 67.7945 94.6596 68.5133C94.644 69.232 94.6362 69.9508 94.6362 70.6695C94.6362 71.0133 94.644 71.3258 94.6596 71.607C94.6909 71.8727 94.7534 72.0992 94.8471 72.2867C94.9565 72.4742 95.1284 72.6148 95.3627 72.7086C95.5971 72.8023 95.9252 72.8492 96.3471 72.8492C96.9252 72.8492 97.5034 72.8102 98.0815 72.732C98.6596 72.6539 99.2377 72.5523 99.8159 72.4273ZM109.753 59.9586C109.753 60.4117 109.73 60.857 109.683 61.2945C109.652 61.7164 109.605 62.1539 109.542 62.607C109.464 62.5914 109.339 62.5836 109.167 62.5836C108.949 62.5836 108.699 62.5992 108.417 62.6305C108.152 62.6617 107.878 62.7164 107.597 62.7945C107.331 62.857 107.074 62.9508 106.824 63.0758C106.574 63.1852 106.371 63.3258 106.214 63.4977C106.042 63.7008 105.871 63.9508 105.699 64.2477C105.542 64.5445 105.464 64.8336 105.464 65.1148C105.464 65.2398 105.472 65.3336 105.488 65.3961L108.113 65.5133C108.144 65.7633 108.175 66.0211 108.206 66.2867C108.238 66.5523 108.253 66.8102 108.253 67.0602C108.253 67.3102 108.246 67.5523 108.23 67.7867C108.214 68.0211 108.199 68.2555 108.183 68.4898L105.91 68.9586C106.035 70.3023 106.167 71.6383 106.308 72.9664C106.449 74.2789 106.558 75.607 106.636 76.9508C106.449 76.9508 106.261 76.943 106.074 76.9273C105.886 76.9273 105.706 76.9273 105.535 76.9273C104.722 76.9273 103.917 76.9508 103.121 76.9977C102.339 77.0602 101.55 77.0992 100.753 77.1148L100.964 69.357L99.2065 69.4508V68.818C99.2065 68.2711 99.2377 67.732 99.3002 67.2008C99.3627 66.6695 99.4096 66.1305 99.4409 65.5836C99.9409 65.568 100.308 65.5523 100.542 65.5367C100.777 65.5055 100.933 65.4742 101.011 65.443C101.105 65.4117 101.136 65.3727 101.105 65.3258C101.136 64.7945 101.183 64.2867 101.246 63.8023C101.292 63.3961 101.355 62.982 101.433 62.5602C101.511 62.1383 101.613 61.8102 101.738 61.5758C102.128 60.8258 102.581 60.2555 103.097 59.8648C103.628 59.4586 104.199 59.1695 104.808 58.9977C105.433 58.8102 106.089 58.7086 106.777 58.693C107.48 58.6617 108.206 58.6461 108.956 58.6461C109.081 58.6461 109.199 58.6461 109.308 58.6461C109.433 58.6461 109.558 58.6539 109.683 58.6695C109.73 59.1227 109.753 59.5523 109.753 59.9586ZM128.128 67.2945C128.128 67.4195 128.128 67.5445 128.128 67.6695C128.128 67.7789 128.121 67.8961 128.105 68.0211C128.089 68.2398 128.05 68.5992 127.988 69.0992C127.925 69.5992 127.839 70.1227 127.73 70.6695C127.621 71.2008 127.488 71.693 127.331 72.1461C127.175 72.5992 127.003 72.8883 126.816 73.0133C126.722 73.0758 126.402 73.1305 125.855 73.1773C125.324 73.2242 124.667 73.2711 123.886 73.318C123.121 73.3648 122.285 73.4039 121.378 73.4352C120.472 73.4664 119.605 73.4977 118.777 73.5289C117.964 73.5445 117.246 73.5602 116.621 73.5758C116.011 73.5914 115.605 73.5992 115.402 73.5992C115.308 73.5992 115.144 73.5992 114.91 73.5992C114.691 73.5992 114.456 73.5992 114.206 73.5992C113.956 73.5836 113.722 73.568 113.503 73.5523C113.285 73.5367 113.128 73.5133 113.035 73.482C112.816 73.4039 112.597 73.2789 112.378 73.107C112.16 72.9195 111.956 72.7164 111.769 72.4977C111.581 72.2633 111.41 72.0289 111.253 71.7945C111.113 71.5445 111.011 71.3102 110.949 71.0914C110.902 70.9195 110.863 70.6617 110.831 70.318C110.8 69.9586 110.777 69.5914 110.761 69.2164C110.746 68.8258 110.73 68.4508 110.714 68.0914C110.714 67.732 110.714 67.4586 110.714 67.2711C110.714 66.9742 110.722 66.568 110.738 66.0523C110.753 65.5211 110.8 64.982 110.878 64.4352C110.956 63.8883 111.066 63.3805 111.206 62.9117C111.363 62.4273 111.581 62.0914 111.863 61.9039C111.988 61.8258 112.222 61.7555 112.566 61.693C112.91 61.6305 113.316 61.5758 113.785 61.5289C114.253 61.482 114.753 61.4508 115.285 61.4352C115.816 61.4039 116.331 61.3883 116.831 61.3883C117.347 61.3727 117.824 61.3648 118.261 61.3648C118.699 61.3648 119.05 61.3727 119.316 61.3883C119.55 61.4039 119.886 61.4195 120.324 61.4352C120.761 61.4352 121.246 61.443 121.777 61.4586C122.324 61.4742 122.886 61.5055 123.464 61.5523C124.042 61.5836 124.581 61.6305 125.081 61.693C125.581 61.7555 126.019 61.8414 126.394 61.9508C126.785 62.0445 127.042 62.1617 127.167 62.3023C127.371 62.5211 127.535 62.8492 127.66 63.2867C127.785 63.7242 127.878 64.193 127.941 64.693C128.019 65.1773 128.066 65.6617 128.081 66.1461C128.113 66.6148 128.128 66.9977 128.128 67.2945ZM123.16 67.7867C123.16 67.5992 123.152 67.3805 123.136 67.1305C123.121 66.8805 123.097 66.6305 123.066 66.3805C123.035 66.1148 122.988 65.8648 122.925 65.6305C122.863 65.3805 122.785 65.1773 122.691 65.0211C122.566 64.818 122.324 64.6617 121.964 64.5523C121.605 64.443 121.206 64.3648 120.769 64.318C120.347 64.2555 119.925 64.2164 119.503 64.2008C119.097 64.1852 118.792 64.1773 118.589 64.1773C118.48 64.1773 118.285 64.1852 118.003 64.2008C117.722 64.2008 117.425 64.2086 117.113 64.2242C116.816 64.2398 116.535 64.2711 116.269 64.318C116.003 64.3492 115.831 64.3883 115.753 64.4352C115.613 64.5289 115.503 64.6773 115.425 64.8805C115.347 65.068 115.285 65.2789 115.238 65.5133C115.206 65.7477 115.183 65.982 115.167 66.2164C115.167 66.4352 115.167 66.6148 115.167 66.7555C115.167 66.8961 115.175 67.1539 115.191 67.5289C115.222 67.8883 115.253 68.2789 115.285 68.7008C115.331 69.107 115.386 69.482 115.449 69.8258C115.511 70.1695 115.589 70.3883 115.683 70.482C115.792 70.607 115.996 70.7086 116.292 70.7867C116.605 70.8648 116.933 70.9352 117.277 70.9977C117.636 71.0445 117.98 71.0836 118.308 71.1148C118.636 71.1305 118.871 71.1383 119.011 71.1383C119.261 71.1383 119.558 71.1305 119.902 71.1148C120.246 71.0992 120.589 71.0602 120.933 70.9977C121.292 70.9352 121.628 70.8492 121.941 70.7398C122.253 70.6305 122.503 70.482 122.691 70.2945C122.8 70.1852 122.886 70.0211 122.949 69.8023C123.011 69.5836 123.058 69.3492 123.089 69.0992C123.121 68.8492 123.136 68.607 123.136 68.3727C123.152 68.1227 123.16 67.9273 123.16 67.7867ZM135.535 58.5523C135.41 60.068 135.285 61.5758 135.16 63.0758C135.05 64.5758 134.956 66.0836 134.878 67.5992C134.8 68.9742 134.714 70.3414 134.621 71.7008C134.542 73.0445 134.464 74.4039 134.386 75.7789L130.8 75.9664C130.8 74.5445 130.8 73.1383 130.8 71.7477C130.816 70.3414 130.808 68.9273 130.777 67.5055C130.746 66.0836 130.683 64.6773 130.589 63.2867C130.496 61.8805 130.402 60.4664 130.308 59.0445L135.535 58.5523ZM141.675 60.8961C141.675 61.2086 141.605 61.5055 141.464 61.7867C141.339 62.0523 141.16 62.2867 140.925 62.4898C140.706 62.693 140.456 62.857 140.175 62.982C139.894 63.0914 139.613 63.1461 139.331 63.1461C139.019 63.1461 138.722 63.0758 138.441 62.9352C138.175 62.7945 137.941 62.6148 137.738 62.3961C137.535 62.1773 137.378 61.9273 137.269 61.6461C137.16 61.3492 137.105 61.0523 137.105 60.7555C137.105 60.4586 137.16 60.1852 137.269 59.9352C137.394 59.6695 137.55 59.443 137.738 59.2555C137.941 59.068 138.167 58.9195 138.417 58.8102C138.683 58.7008 138.964 58.6461 139.261 58.6461C139.558 58.6461 139.847 58.7086 140.128 58.8336C140.425 58.943 140.683 59.107 140.902 59.3258C141.136 59.5289 141.324 59.7711 141.464 60.0523C141.605 60.318 141.675 60.5992 141.675 60.8961ZM142.636 64.8805C142.558 65.7086 142.496 66.5289 142.449 67.3414C142.402 68.1539 142.355 68.9664 142.308 69.7789C142.246 70.732 142.136 71.6773 141.98 72.6148C141.839 73.5523 141.675 74.4898 141.488 75.4273L137.902 75.8023C137.902 75.3023 137.902 74.8102 137.902 74.3258C137.917 73.8414 137.925 73.3492 137.925 72.8492C137.925 71.568 137.902 70.2867 137.855 69.0055C137.808 67.7242 137.761 66.443 137.714 65.1617C138.542 65.1305 139.355 65.0836 140.152 65.0211C140.964 64.9586 141.792 64.9117 142.636 64.8805ZM162.464 67.2945C162.464 67.4195 162.464 67.5445 162.464 67.6695C162.464 67.7789 162.456 67.8961 162.441 68.0211C162.425 68.2398 162.386 68.5992 162.324 69.0992C162.261 69.5992 162.175 70.1227 162.066 70.6695C161.956 71.2008 161.824 71.693 161.667 72.1461C161.511 72.5992 161.339 72.8883 161.152 73.0133C161.058 73.0758 160.738 73.1305 160.191 73.1773C159.66 73.2242 159.003 73.2711 158.222 73.318C157.456 73.3648 156.621 73.4039 155.714 73.4352C154.808 73.4664 153.941 73.4977 153.113 73.5289C152.3 73.5445 151.581 73.5602 150.956 73.5758C150.347 73.5914 149.941 73.5992 149.738 73.5992C149.644 73.5992 149.48 73.5992 149.246 73.5992C149.027 73.5992 148.792 73.5992 148.542 73.5992C148.292 73.5836 148.058 73.568 147.839 73.5523C147.621 73.5367 147.464 73.5133 147.371 73.482C147.152 73.4039 146.933 73.2789 146.714 73.107C146.496 72.9195 146.292 72.7164 146.105 72.4977C145.917 72.2633 145.746 72.0289 145.589 71.7945C145.449 71.5445 145.347 71.3102 145.285 71.0914C145.238 70.9195 145.199 70.6617 145.167 70.318C145.136 69.9586 145.113 69.5914 145.097 69.2164C145.081 68.8258 145.066 68.4508 145.05 68.0914C145.05 67.732 145.05 67.4586 145.05 67.2711C145.05 66.9742 145.058 66.568 145.074 66.0523C145.089 65.5211 145.136 64.982 145.214 64.4352C145.292 63.8883 145.402 63.3805 145.542 62.9117C145.699 62.4273 145.917 62.0914 146.199 61.9039C146.324 61.8258 146.558 61.7555 146.902 61.693C147.246 61.6305 147.652 61.5758 148.121 61.5289C148.589 61.482 149.089 61.4508 149.621 61.4352C150.152 61.4039 150.667 61.3883 151.167 61.3883C151.683 61.3727 152.16 61.3648 152.597 61.3648C153.035 61.3648 153.386 61.3727 153.652 61.3883C153.886 61.4039 154.222 61.4195 154.66 61.4352C155.097 61.4352 155.581 61.443 156.113 61.4586C156.66 61.4742 157.222 61.5055 157.8 61.5523C158.378 61.5836 158.917 61.6305 159.417 61.693C159.917 61.7555 160.355 61.8414 160.73 61.9508C161.121 62.0445 161.378 62.1617 161.503 62.3023C161.706 62.5211 161.871 62.8492 161.996 63.2867C162.121 63.7242 162.214 64.193 162.277 64.693C162.355 65.1773 162.402 65.6617 162.417 66.1461C162.449 66.6148 162.464 66.9977 162.464 67.2945ZM157.496 67.7867C157.496 67.5992 157.488 67.3805 157.472 67.1305C157.456 66.8805 157.433 66.6305 157.402 66.3805C157.371 66.1148 157.324 65.8648 157.261 65.6305C157.199 65.3805 157.121 65.1773 157.027 65.0211C156.902 64.818 156.66 64.6617 156.3 64.5523C155.941 64.443 155.542 64.3648 155.105 64.318C154.683 64.2555 154.261 64.2164 153.839 64.2008C153.433 64.1852 153.128 64.1773 152.925 64.1773C152.816 64.1773 152.621 64.1852 152.339 64.2008C152.058 64.2008 151.761 64.2086 151.449 64.2242C151.152 64.2398 150.871 64.2711 150.605 64.318C150.339 64.3492 150.167 64.3883 150.089 64.4352C149.949 64.5289 149.839 64.6773 149.761 64.8805C149.683 65.068 149.621 65.2789 149.574 65.5133C149.542 65.7477 149.519 65.982 149.503 66.2164C149.503 66.4352 149.503 66.6148 149.503 66.7555C149.503 66.8961 149.511 67.1539 149.527 67.5289C149.558 67.8883 149.589 68.2789 149.621 68.7008C149.667 69.107 149.722 69.482 149.785 69.8258C149.847 70.1695 149.925 70.3883 150.019 70.482C150.128 70.607 150.331 70.7086 150.628 70.7867C150.941 70.8648 151.269 70.9352 151.613 70.9977C151.972 71.0445 152.316 71.0836 152.644 71.1148C152.972 71.1305 153.206 71.1383 153.347 71.1383C153.597 71.1383 153.894 71.1305 154.238 71.1148C154.581 71.0992 154.925 71.0602 155.269 70.9977C155.628 70.9352 155.964 70.8492 156.277 70.7398C156.589 70.6305 156.839 70.482 157.027 70.2945C157.136 70.1852 157.222 70.0211 157.285 69.8023C157.347 69.5836 157.394 69.3492 157.425 69.0992C157.456 68.8492 157.472 68.607 157.472 68.3727C157.488 68.1227 157.496 67.9273 157.496 67.7867Z" fill="white"/>
</g>
<defs>
<filter id="filter0_d_7_57" x="-0.00355244" y="3.12072" width="224.596" height="145.905" filterUnits="userSpaceOnUse" color-interpolation-filters="sRGB">
<feFlood flood-opacity="0" result="BackgroundImageFix"/>
<feColorMatrix in="SourceAlpha" type="matrix" values="0 0 0 0 0 0 0 0 0 0 0 0 0 0 0 0 0 0 127 0" result="hardAlpha"/>
<feOffset dx="4" dy="12"/>
<feGaussianBlur stdDeviation="6.4"/>
<feComposite in2="hardAlpha" operator="out"/>
<feColorMatrix type="matrix" values="0 0 0 0 0 0 0 0 0 0 0 0 0 0 0 0 0 0 0.25 0"/>
<feBlend mode="normal" in2="BackgroundImageFix" result="effect1_dropShadow_7_57"/>
<feBlend mode="normal" in="SourceGraphic" in2="effect1_dropShadow_7_57" result="shape"/>
</filter>
<filter id="filter1_d_7_57" x="31.058" y="58.5523" width="135.406" height="27.7578" filterUnits="userSpaceOnUse" color-interpolation-filters="sRGB">
<feFlood flood-opacity="0" result="BackgroundImageFix"/>
<feColorMatrix in="SourceAlpha" type="matrix" values="0 0 0 0 0 0 0 0 0 0 0 0 0 0 0 0 0 0 127 0" result="hardAlpha"/>
<feOffset dy="4"/>
<feGaussianBlur stdDeviation="2"/>
<feComposite in2="hardAlpha" operator="out"/>
<feColorMatrix type="matrix" values="0 0 0 0 0 0 0 0 0 0 0 0 0 0 0 0 0 0 0.6 0"/>
<feBlend mode="normal" in2="BackgroundImageFix" result="effect1_dropShadow_7_57"/>
<feBlend mode="normal" in="SourceGraphic" in2="effect1_dropShadow_7_57" result="shape"/>
</filter>
</defs>
</svg>
